STARTFONT 2.1
FONT -Adobe-Utopia-Regular-I-Normal--12-120-75-75-P-67-ISO10646-1
SIZE 12 75 75
FONTBOUNDINGBOX 16 22 -3 -7
COMMENT $Xorg: $
COMMENT ISO10646-1 extension by Markus Kuhn <mkuhn@acm.org>, 2001-03-20
STARTPROPERTIES 28
FOUNDRY "Adobe"
FAMILY_NAME "Utopia"
WEIGHT_NAME "Regular"
SLANT "I"
SETWIDTH_NAME "Normal"
ADD_STYLE_NAME ""
PIXEL_SIZE 12
POINT_SIZE 120
RESOLUTION_X 75
RESOLUTION_Y 75
SPACING "P"
AVERAGE_WIDTH 67
CHARSET_REGISTRY "ISO10646"
CHARSET_ENCODING "1"
CAP_HEIGHT 9
X_HEIGHT 6
RELATIVE_SETWIDTH 50
RELATIVE_WEIGHT 50
WEIGHT 130
FACE_NAME "Utopia Italic"
COPYRIGHT "Copyright (c) 1989, 1991 Adobe Systems Incorporated.  All rights reserved."
NOTICE "Utopia is a registered trademark of Adobe Systems Incorporated."
DESTINATION 0
FONT_ASCENT 10
FONT_DESCENT 3
DEFAULT_CHAR 0
_ADOBE_PSFONT "Utopia-Italic"
_DEC_DEVICE_FONTNAMES "PS=Utopia-Italic"
ENDPROPERTIES
CHARS 723
STARTCHAR char0
ENCODING 0
SWIDTH 775 0
DWIDTH 10 0
BBX 9 9 0 0
BITMAP
AA80
0000
8080
0000
8080
0000
8080
0000
AA80
ENDCHAR
STARTCHAR space
ENCODING 32
SWIDTH 225 0
DWIDTH 3 0
BBX 0 0 0 0
BITMAP
ENDCHAR
STARTCHAR exclam
ENCODING 33
SWIDTH 240 0
DWIDTH 3 0
BBX 2 9 0 0
BITMAP
40
40
40
40
80
80
80
00
80
ENDCHAR
STARTCHAR quotedbl
ENCODING 34
SWIDTH 402 0
DWIDTH 5 0
BBX 3 3 1 6
BITMAP
A0
A0
A0
ENDCHAR
STARTCHAR numbersign
ENCODING 35
SWIDTH 530 0
DWIDTH 6 0
BBX 6 8 0 1
BITMAP
28
28
7C
28
50
F8
50
50
ENDCHAR
STARTCHAR dollar
ENCODING 36
SWIDTH 530 0
DWIDTH 7 0
BBX 7 11 0 -1
BITMAP
04
1E
2A
48
70
38
1C
24
A8
F0
40
ENDCHAR
STARTCHAR percent
ENCODING 37
SWIDTH 826 0
DWIDTH 10 0
BBX 8 9 1 0
BITMAP
32
5E
94
A8
CB
15
29
2A
4C
ENDCHAR
STARTCHAR ampersand
ENCODING 38
SWIDTH 725 0
DWIDTH 9 0
BBX 8 9 0 0
BITMAP
18
24
24
28
51
89
8A
C4
7B
ENDCHAR
STARTCHAR quotesingle
ENCODING 39
SWIDTH 216 0
DWIDTH 4 0
BBX 1 3 2 6
BITMAP
80
80
80
ENDCHAR
STARTCHAR parenleft
ENCODING 40
SWIDTH 350 0
DWIDTH 4 0
BBX 4 11 0 -2
BITMAP
10
20
40
40
80
80
80
80
80
80
40
ENDCHAR
STARTCHAR parenright
ENCODING 41
SWIDTH 350 0
DWIDTH 4 0
BBX 4 11 -1 -2
BITMAP
20
10
10
10
10
10
10
20
20
40
80
ENDCHAR
STARTCHAR asterisk
ENCODING 42
SWIDTH 412 0
DWIDTH 5 0
BBX 5 5 0 4
BITMAP
20
A8
70
A8
20
ENDCHAR
STARTCHAR plus
ENCODING 43
SWIDTH 570 0
DWIDTH 7 0
BBX 5 5 1 1
BITMAP
20
20
F8
20
20
ENDCHAR
STARTCHAR comma
ENCODING 44
SWIDTH 265 0
DWIDTH 3 0
BBX 2 3 -1 -2
BITMAP
40
40
80
ENDCHAR
STARTCHAR hyphen
ENCODING 45
SWIDTH 392 0
DWIDTH 5 0
BBX 3 1 1 3
BITMAP
E0
ENDCHAR
STARTCHAR period
ENCODING 46
SWIDTH 265 0
DWIDTH 3 0
BBX 1 1 0 0
BITMAP
80
ENDCHAR
STARTCHAR slash
ENCODING 47
SWIDTH 270 0
DWIDTH 3 0
BBX 3 9 0 0
BITMAP
20
20
20
40
40
40
80
80
80
ENDCHAR
STARTCHAR zero
ENCODING 48
SWIDTH 530 0
DWIDTH 6 0
BBX 6 9 0 0
BITMAP
18
24
64
44
CC
88
98
90
60
ENDCHAR
STARTCHAR one
ENCODING 49
SWIDTH 530 0
DWIDTH 6 0
BBX 4 9 1 0
BITMAP
30
10
10
20
20
20
40
40
E0
ENDCHAR
STARTCHAR two
ENCODING 50
SWIDTH 530 0
DWIDTH 6 0
BBX 6 9 0 0
BITMAP
38
64
04
0C
18
60
C0
88
F8
ENDCHAR
STARTCHAR three
ENCODING 51
SWIDTH 530 0
DWIDTH 6 0
BBX 6 9 0 0
BITMAP
38
64
04
0C
38
08
08
D8
70
ENDCHAR
STARTCHAR four
ENCODING 52
SWIDTH 530 0
DWIDTH 6 0
BBX 5 9 0 0
BITMAP
10
30
28
68
48
90
F8
10
38
ENDCHAR
STARTCHAR five
ENCODING 53
SWIDTH 530 0
DWIDTH 6 0
BBX 6 9 0 0
BITMAP
3C
20
40
70
08
08
08
D8
70
ENDCHAR
STARTCHAR six
ENCODING 54
SWIDTH 530 0
DWIDTH 6 0
BBX 6 9 0 0
BITMAP
1C
24
40
70
C8
88
88
98
70
ENDCHAR
STARTCHAR seven
ENCODING 55
SWIDTH 530 0
DWIDTH 6 0
BBX 5 9 1 0
BITMAP
F8
88
10
20
60
40
C0
80
80
ENDCHAR
STARTCHAR eight
ENCODING 56
SWIDTH 530 0
DWIDTH 6 0
BBX 6 9 0 0
BITMAP
38
64
44
68
30
58
88
98
70
ENDCHAR
STARTCHAR nine
ENCODING 57
SWIDTH 530 0
DWIDTH 6 0
BBX 6 9 0 0
BITMAP
38
64
44
44
4C
38
08
90
E0
ENDCHAR
STARTCHAR colon
ENCODING 58
SWIDTH 265 0
DWIDTH 3 0
BBX 2 6 0 0
BITMAP
40
00
00
00
00
80
ENDCHAR
STARTCHAR semicolon
ENCODING 59
SWIDTH 265 0
DWIDTH 3 0
BBX 3 8 -1 -2
BITMAP
20
00
00
00
00
40
40
80
ENDCHAR
STARTCHAR less
ENCODING 60
SWIDTH 570 0
DWIDTH 7 0
BBX 6 5 0 1
BITMAP
0C
30
C0
30
0C
ENDCHAR
STARTCHAR equal
ENCODING 61
SWIDTH 570 0
DWIDTH 7 0
BBX 5 3 1 2
BITMAP
F8
00
F8
ENDCHAR
STARTCHAR greater
ENCODING 62
SWIDTH 570 0
DWIDTH 7 0
BBX 6 5 0 1
BITMAP
C0
30
0C
30
C0
ENDCHAR
STARTCHAR question
ENCODING 63
SWIDTH 425 0
DWIDTH 6 0
BBX 4 9 1 0
BITMAP
60
90
10
20
40
80
C0
00
80
ENDCHAR
STARTCHAR at
ENCODING 64
SWIDTH 794 0
DWIDTH 10 0
BBX 9 9 0 0
BITMAP
1E00
2100
4E80
9280
A480
AD00
B600
4000
3E00
ENDCHAR
STARTCHAR A
ENCODING 65
SWIDTH 624 0
DWIDTH 8 0
BBX 8 9 -1 0
BITMAP
04
0C
0C
14
12
3E
22
42
E7
ENDCHAR
STARTCHAR B
ENCODING 66
SWIDTH 632 0
DWIDTH 8 0
BBX 7 9 0 0
BITMAP
7C
22
22
26
3C
42
42
46
FC
ENDCHAR
STARTCHAR C
ENCODING 67
SWIDTH 661 0
DWIDTH 8 0
BBX 7 9 0 0
BITMAP
1E
62
40
C0
80
80
82
46
38
ENDCHAR
STARTCHAR D
ENCODING 68
SWIDTH 763 0
DWIDTH 9 0
BBX 8 9 0 0
BITMAP
7C
22
21
21
41
43
42
46
F8
ENDCHAR
STARTCHAR E
ENCODING 69
SWIDTH 596 0
DWIDTH 8 0
BBX 7 9 0 0
BITMAP
7E
22
20
24
3C
44
40
44
FC
ENDCHAR
STARTCHAR F
ENCODING 70
SWIDTH 571 0
DWIDTH 8 0
BBX 7 9 0 0
BITMAP
7E
22
20
24
7C
44
40
40
E0
ENDCHAR
STARTCHAR G
ENCODING 71
SWIDTH 709 0
DWIDTH 9 0
BBX 8 9 0 0
BITMAP
1E
62
40
C0
80
87
82
46
3C
ENDCHAR
STARTCHAR H
ENCODING 72
SWIDTH 775 0
DWIDTH 10 0
BBX 9 9 0 0
BITMAP
7380
2100
2100
2100
3E00
4200
4200
4200
E700
ENDCHAR
STARTCHAR I
ENCODING 73
SWIDTH 345 0
DWIDTH 4 0
BBX 4 9 0 0
BITMAP
70
20
20
20
40
40
40
40
E0
ENDCHAR
STARTCHAR J
ENCODING 74
SWIDTH 352 0
DWIDTH 4 0
BBX 5 11 -1 -2
BITMAP
38
10
10
10
10
20
20
20
20
20
C0
ENDCHAR
STARTCHAR K
ENCODING 75
SWIDTH 650 0
DWIDTH 8 0
BBX 8 9 0 0
BITMAP
77
22
24
28
50
48
48
44
E6
ENDCHAR
STARTCHAR L
ENCODING 76
SWIDTH 565 0
DWIDTH 7 0
BBX 6 9 0 0
BITMAP
70
20
20
20
40
40
40
44
FC
ENDCHAR
STARTCHAR M
ENCODING 77
SWIDTH 920 0
DWIDTH 12 0
BBX 11 9 0 0
BITMAP
60E0
20C0
3140
3240
52C0
5C80
4880
4880
E1C0
ENDCHAR
STARTCHAR N
ENCODING 78
SWIDTH 763 0
DWIDTH 10 0
BBX 9 9 0 0
BITMAP
6380
3100
3100
2900
4900
4600
4600
4200
E200
ENDCHAR
STARTCHAR O
ENCODING 79
SWIDTH 753 0
DWIDTH 9 0
BBX 8 9 0 0
BITMAP
1C
62
41
C1
81
83
82
46
38
ENDCHAR
STARTCHAR P
ENCODING 80
SWIDTH 614 0
DWIDTH 8 0
BBX 7 9 0 0
BITMAP
7C
22
22
22
46
7C
40
40
E0
ENDCHAR
STARTCHAR Q
ENCODING 81
SWIDTH 753 0
DWIDTH 9 0
BBX 8 12 0 -3
BITMAP
1C
62
41
C1
81
83
82
46
38
10
08
06
ENDCHAR
STARTCHAR R
ENCODING 82
SWIDTH 640 0
DWIDTH 8 0
BBX 7 9 0 0
BITMAP
7C
22
22
26
3C
48
44
44
E6
ENDCHAR
STARTCHAR S
ENCODING 83
SWIDTH 533 0
DWIDTH 7 0
BBX 6 9 0 0
BITMAP
3C
44
40
60
30
18
08
88
F0
ENDCHAR
STARTCHAR T
ENCODING 84
SWIDTH 606 0
DWIDTH 7 0
BBX 7 9 0 0
BITMAP
FE
92
10
10
20
20
20
20
70
ENDCHAR
STARTCHAR U
ENCODING 85
SWIDTH 794 0
DWIDTH 10 0
BBX 8 9 1 0
BITMAP
E7
42
42
42
84
84
84
CC
78
ENDCHAR
STARTCHAR V
ENCODING 86
SWIDTH 637 0
DWIDTH 8 0
BBX 8 9 0 0
BITMAP
E7
42
44
44
28
28
30
30
20
ENDCHAR
STARTCHAR W
ENCODING 87
SWIDTH 946 0
DWIDTH 12 0
BBX 12 9 0 0
BITMAP
E270
4620
4620
4A40
4A40
5280
3180
2100
2100
ENDCHAR
STARTCHAR X
ENCODING 88
SWIDTH 632 0
DWIDTH 9 0
BBX 8 9 0 0
BITMAP
77
22
14
14
18
28
24
44
EE
ENDCHAR
STARTCHAR Y
ENCODING 89
SWIDTH 591 0
DWIDTH 7 0
BBX 7 9 0 0
BITMAP
EE
44
48
50
20
20
40
40
E0
ENDCHAR
STARTCHAR Z
ENCODING 90
SWIDTH 622 0
DWIDTH 8 0
BBX 7 9 0 0
BITMAP
7E
42
04
08
10
20
40
84
FC
ENDCHAR
STARTCHAR bracketleft
ENCODING 91
SWIDTH 330 0
DWIDTH 4 0
BBX 4 11 0 -2
BITMAP
30
20
20
40
40
40
40
40
80
80
C0
ENDCHAR
STARTCHAR backslash
ENCODING 92
SWIDTH 390 0
DWIDTH 5 0
BBX 3 9 1 0
BITMAP
80
80
80
40
40
40
20
20
20
ENDCHAR
STARTCHAR bracketright
ENCODING 93
SWIDTH 330 0
DWIDTH 4 0
BBX 4 11 -1 -2
BITMAP
30
10
10
20
20
20
20
20
40
40
C0
ENDCHAR
STARTCHAR asciicircum
ENCODING 94
SWIDTH 570 0
DWIDTH 7 0
BBX 5 6 1 3
BITMAP
20
20
50
50
88
88
ENDCHAR
STARTCHAR underscore
ENCODING 95
SWIDTH 500 0
DWIDTH 6 0
BBX 6 1 0 -2
BITMAP
FC
ENDCHAR
STARTCHAR grave
ENCODING 96
SWIDTH 400 0
DWIDTH 5 0
BBX 2 2 1 7
BITMAP
80
40
ENDCHAR
STARTCHAR a
ENCODING 97
SWIDTH 561 0
DWIDTH 7 0
BBX 6 6 0 0
BITMAP
3C
44
CC
88
98
EC
ENDCHAR
STARTCHAR b
ENCODING 98
SWIDTH 559 0
DWIDTH 7 0
BBX 6 10 0 0
BITMAP
60
20
20
40
58
64
44
CC
88
F0
ENDCHAR
STARTCHAR c
ENCODING 99
SWIDTH 441 0
DWIDTH 6 0
BBX 6 6 0 0
BITMAP
38
4C
C0
80
88
70
ENDCHAR
STARTCHAR d
ENCODING 100
SWIDTH 587 0
DWIDTH 7 0
BBX 7 10 0 0
BITMAP
06
02
02
04
3C
44
CC
88
98
EC
ENDCHAR
STARTCHAR e
ENCODING 101
SWIDTH 453 0
DWIDTH 6 0
BBX 5 6 0 0
BITMAP
38
48
90
E0
80
70
ENDCHAR
STARTCHAR f
ENCODING 102
SWIDTH 315 0
DWIDTH 4 0
BBX 7 13 -2 -3
BITMAP
06
0A
08
08
3C
10
10
10
20
20
20
A0
C0
ENDCHAR
STARTCHAR g
ENCODING 103
SWIDTH 499 0
DWIDTH 6 0
BBX 7 9 -1 -3
BITMAP
1E
24
4C
58
20
38
4C
84
78
ENDCHAR
STARTCHAR h
ENCODING 104
SWIDTH 607 0
DWIDTH 8 0
BBX 7 10 0 0
BITMAP
60
20
20
40
4C
54
64
C8
8A
8C
ENDCHAR
STARTCHAR i
ENCODING 105
SWIDTH 317 0
DWIDTH 4 0
BBX 3 8 0 0
BITMAP
40
00
C0
40
40
80
A0
C0
ENDCHAR
STARTCHAR j
ENCODING 106
SWIDTH 309 0
DWIDTH 3 0
BBX 4 11 -2 -3
BITMAP
10
00
30
10
10
20
20
20
20
A0
C0
ENDCHAR
STARTCHAR k
ENCODING 107
SWIDTH 545 0
DWIDTH 7 0
BBX 6 10 0 0
BITMAP
60
20
20
44
4C
50
60
90
94
98
ENDCHAR
STARTCHAR l
ENCODING 108
SWIDTH 306 0
DWIDTH 4 0
BBX 3 10 0 0
BITMAP
60
20
20
40
40
40
40
80
A0
C0
ENDCHAR
STARTCHAR m
ENCODING 109
SWIDTH 912 0
DWIDTH 12 0
BBX 11 6 0 0
BITMAP
CCC0
5540
6640
CC80
88A0
88C0
ENDCHAR
STARTCHAR n
ENCODING 110
SWIDTH 618 0
DWIDTH 8 0
BBX 7 6 0 0
BITMAP
CC
54
64
C8
8A
8C
ENDCHAR
STARTCHAR o
ENCODING 111
SWIDTH 537 0
DWIDTH 7 0
BBX 6 6 0 0
BITMAP
38
44
C4
8C
88
70
ENDCHAR
STARTCHAR p
ENCODING 112
SWIDTH 590 0
DWIDTH 7 0
BBX 7 9 -1 -3
BITMAP
6C
32
22
66
44
78
80
80
80
ENDCHAR
STARTCHAR q
ENCODING 113
SWIDTH 559 0
DWIDTH 7 0
BBX 6 10 0 -3
BITMAP
04
3C
44
CC
88
98
E8
10
10
10
ENDCHAR
STARTCHAR r
ENCODING 114
SWIDTH 402 0
DWIDTH 5 0
BBX 5 6 0 0
BITMAP
D8
68
40
C0
80
80
ENDCHAR
STARTCHAR s
ENCODING 115
SWIDTH 389 0
DWIDTH 6 0
BBX 5 6 0 0
BITMAP
38
48
60
30
90
E0
ENDCHAR
STARTCHAR t
ENCODING 116
SWIDTH 341 0
DWIDTH 4 0
BBX 4 8 0 0
BITMAP
40
40
F0
40
C0
80
A0
C0
ENDCHAR
STARTCHAR u
ENCODING 117
SWIDTH 618 0
DWIDTH 8 0
BBX 7 6 0 0
BITMAP
C4
44
4C
98
AA
CC
ENDCHAR
STARTCHAR v
ENCODING 118
SWIDTH 510 0
DWIDTH 6 0
BBX 5 6 0 0
BITMAP
C8
48
C8
88
90
60
ENDCHAR
STARTCHAR w
ENCODING 119
SWIDTH 785 0
DWIDTH 10 0
BBX 8 6 1 0
BITMAP
C9
49
D9
91
92
6C
ENDCHAR
STARTCHAR x
ENCODING 120
SWIDTH 516 0
DWIDTH 7 0
BBX 6 6 0 0
BITMAP
64
28
30
30
54
98
ENDCHAR
STARTCHAR y
ENCODING 121
SWIDTH 468 0
DWIDTH 6 0
BBX 7 9 -2 -3
BITMAP
32
12
14
14
18
10
10
A0
C0
ENDCHAR
STARTCHAR z
ENCODING 122
SWIDTH 468 0
DWIDTH 6 0
BBX 5 6 0 0
BITMAP
78
90
20
40
88
F0
ENDCHAR
STARTCHAR braceleft
ENCODING 123
SWIDTH 340 0
DWIDTH 4 0
BBX 4 11 0 -2
BITMAP
10
20
20
40
80
40
40
80
80
80
40
ENDCHAR
STARTCHAR bar
ENCODING 124
SWIDTH 270 0
DWIDTH 3 0
BBX 1 9 1 0
BITMAP
80
80
80
80
80
80
80
80
80
ENDCHAR
STARTCHAR braceright
ENCODING 125
SWIDTH 340 0
DWIDTH 4 0
BBX 4 11 -1 -2
BITMAP
20
10
10
20
20
10
20
40
40
40
80
ENDCHAR
STARTCHAR asciitilde
ENCODING 126
SWIDTH 570 0
DWIDTH 7 0
BBX 6 2 0 3
BITMAP
74
98
ENDCHAR
STARTCHAR space
ENCODING 160
SWIDTH 225 0
DWIDTH 3 0
BBX 0 0 0 0
BITMAP
ENDCHAR
STARTCHAR exclamdown
ENCODING 161
SWIDTH 240 0
DWIDTH 3 0
BBX 2 9 0 -3
BITMAP
40
00
40
40
40
80
80
80
80
ENDCHAR
STARTCHAR cent
ENCODING 162
SWIDTH 530 0
DWIDTH 7 0
BBX 6 8 0 0
BITMAP
08
3C
54
90
A0
A8
70
40
ENDCHAR
STARTCHAR sterling
ENCODING 163
SWIDTH 530 0
DWIDTH 6 0
BBX 6 9 0 0
BITMAP
38
64
40
60
20
F8
20
48
F8
ENDCHAR
STARTCHAR currency
ENCODING 164
SWIDTH 530 0
DWIDTH 6 0
BBX 5 7 0 1
BITMAP
88
70
88
88
88
70
88
ENDCHAR
STARTCHAR yen
ENCODING 165
SWIDTH 530 0
DWIDTH 6 0
BBX 7 9 0 0
BITMAP
66
24
24
28
F8
20
F8
40
E0
ENDCHAR
STARTCHAR brokenbar
ENCODING 166
SWIDTH 270 0
DWIDTH 3 0
BBX 1 9 1 0
BITMAP
80
80
80
80
00
80
80
80
80
ENDCHAR
STARTCHAR section
ENCODING 167
SWIDTH 530 0
DWIDTH 7 0
BBX 6 11 0 -2
BITMAP
1C
24
60
90
88
44
24
14
18
90
E0
ENDCHAR
STARTCHAR dieresis
ENCODING 168
SWIDTH 400 0
DWIDTH 5 0
BBX 3 1 0 7
BITMAP
A0
ENDCHAR
STARTCHAR copyright
ENCODING 169
SWIDTH 836 0
DWIDTH 10 0
BBX 9 9 0 0
BITMAP
3E00
4100
9C80
A280
A080
A280
9C80
4100
3E00
ENDCHAR
STARTCHAR ordfeminine
ENCODING 170
SWIDTH 425 0
DWIDTH 5 0
BBX 5 4 0 4
BITMAP
70
90
B0
D8
ENDCHAR
STARTCHAR guillemotleft
ENCODING 171
SWIDTH 462 0
DWIDTH 6 0
BBX 6 4 0 1
BITMAP
24
48
90
48
ENDCHAR
STARTCHAR logicalnot
ENCODING 172
SWIDTH 570 0
DWIDTH 7 0
BBX 5 3 1 2
BITMAP
F8
08
08
ENDCHAR
STARTCHAR hyphen
ENCODING 173
SWIDTH 392 0
DWIDTH 5 0
BBX 3 1 1 3
BITMAP
E0
ENDCHAR
STARTCHAR registered
ENCODING 174
SWIDTH 836 0
DWIDTH 10 0
BBX 9 9 0 0
BITMAP
3E00
4100
BC80
9480
9880
9480
B680
4100
3E00
ENDCHAR
STARTCHAR macron
ENCODING 175
SWIDTH 400 0
DWIDTH 5 0
BBX 4 1 0 7
BITMAP
F0
ENDCHAR
STARTCHAR degree
ENCODING 176
SWIDTH 400 0
DWIDTH 5 0
BBX 4 4 1 5
BITMAP
60
90
90
60
ENDCHAR
STARTCHAR plusminus
ENCODING 177
SWIDTH 570 0
DWIDTH 7 0
BBX 5 7 1 0
BITMAP
20
20
F8
20
20
00
F8
ENDCHAR
STARTCHAR twosuperior
ENCODING 178
SWIDTH 370 0
DWIDTH 5 0
BBX 5 6 0 3
BITMAP
30
48
08
30
40
F0
ENDCHAR
STARTCHAR threesuperior
ENCODING 179
SWIDTH 370 0
DWIDTH 5 0
BBX 5 6 0 3
BITMAP
30
08
70
10
90
60
ENDCHAR
STARTCHAR acute
ENCODING 180
SWIDTH 400 0
DWIDTH 5 0
BBX 2 2 1 7
BITMAP
40
80
ENDCHAR
STARTCHAR mu
ENCODING 181
SWIDTH 618 0
DWIDTH 8 0
BBX 7 9 0 -3
BITMAP
C4
44
4C
98
AA
CC
80
80
80
ENDCHAR
STARTCHAR paragraph
ENCODING 182
SWIDTH 560 0
DWIDTH 7 0
BBX 6 11 0 -2
BITMAP
6C
E8
E8
C8
D0
50
10
20
20
20
60
ENDCHAR
STARTCHAR periodcentered
ENCODING 183
SWIDTH 265 0
DWIDTH 3 0
BBX 1 1 1 3
BITMAP
80
ENDCHAR
STARTCHAR cedilla
ENCODING 184
SWIDTH 400 0
DWIDTH 5 0
BBX 3 3 0 -3
BITMAP
40
20
C0
ENDCHAR
STARTCHAR onesuperior
ENCODING 185
SWIDTH 370 0
DWIDTH 5 0
BBX 3 6 1 3
BITMAP
60
20
20
40
40
E0
ENDCHAR
STARTCHAR ordmasculine
ENCODING 186
SWIDTH 389 0
DWIDTH 5 0
BBX 4 4 0 4
BITMAP
70
90
90
E0
ENDCHAR
STARTCHAR guillemotright
ENCODING 187
SWIDTH 462 0
DWIDTH 6 0
BBX 6 4 0 1
BITMAP
48
24
48
90
ENDCHAR
STARTCHAR onequarter
ENCODING 188
SWIDTH 890 0
DWIDTH 10 0
BBX 9 9 0 0
BITMAP
6080
2100
2200
4400
4500
EB00
1500
2F80
4200
ENDCHAR
STARTCHAR onehalf
ENCODING 189
SWIDTH 890 0
DWIDTH 10 0
BBX 9 9 0 0
BITMAP
6100
2200
2400
4B00
4C80
F080
2100
4200
8780
ENDCHAR
STARTCHAR threequarters
ENCODING 190
SWIDTH 890 0
DWIDTH 10 0
BBX 9 9 0 0
BITMAP
7080
1100
6200
1400
9500
6B00
1500
2F80
4200
ENDCHAR
STARTCHAR questiondown
ENCODING 191
SWIDTH 425 0
DWIDTH 6 0
BBX 4 9 0 -3
BITMAP
10
00
30
10
20
40
80
90
60
ENDCHAR
STARTCHAR Agrave
ENCODING 192
SWIDTH 624 0
DWIDTH 8 0
BBX 8 10 -1 0
BITMAP
08
04
00
04
0C
14
12
3E
42
E7
ENDCHAR
STARTCHAR Aacute
ENCODING 193
SWIDTH 624 0
DWIDTH 8 0
BBX 8 10 -1 0
BITMAP
02
04
00
04
0C
14
12
3E
42
E7
ENDCHAR
STARTCHAR Acircumflex
ENCODING 194
SWIDTH 624 0
DWIDTH 8 0
BBX 8 10 -1 0
BITMAP
04
0A
00
04
0C
14
12
3E
42
E7
ENDCHAR
STARTCHAR Atilde
ENCODING 195
SWIDTH 624 0
DWIDTH 8 0
BBX 8 10 -1 0
BITMAP
0D
16
00
04
0C
14
12
3E
42
E7
ENDCHAR
STARTCHAR Adieresis
ENCODING 196
SWIDTH 624 0
DWIDTH 8 0
BBX 8 9 -1 0
BITMAP
0A
00
04
0C
14
12
3E
42
E7
ENDCHAR
STARTCHAR Aring
ENCODING 197
SWIDTH 624 0
DWIDTH 8 0
BBX 8 10 -1 0
BITMAP
04
0A
04
04
0C
14
12
3E
42
E7
ENDCHAR
STARTCHAR AE
ENCODING 198
SWIDTH 880 0
DWIDTH 11 0
BBX 11 9 -1 0
BITMAP
1FE0
0A20
0A00
1240
1FC0
2440
2400
4440
EFC0
ENDCHAR
STARTCHAR Ccedilla
ENCODING 199
SWIDTH 661 0
DWIDTH 8 0
BBX 7 12 0 -3
BITMAP
1E
62
40
C0
80
80
82
46
38
10
08
30
ENDCHAR
STARTCHAR Egrave
ENCODING 200
SWIDTH 596 0
DWIDTH 8 0
BBX 7 10 0 0
BITMAP
10
08
00
7E
22
20
78
40
44
FC
ENDCHAR
STARTCHAR Eacute
ENCODING 201
SWIDTH 596 0
DWIDTH 8 0
BBX 7 10 0 0
BITMAP
04
08
00
7E
22
20
78
40
44
FC
ENDCHAR
STARTCHAR Ecircumflex
ENCODING 202
SWIDTH 596 0
DWIDTH 8 0
BBX 7 10 0 0
BITMAP
08
14
00
7E
22
20
78
40
44
FC
ENDCHAR
STARTCHAR Edieresis
ENCODING 203
SWIDTH 596 0
DWIDTH 8 0
BBX 7 9 0 0
BITMAP
14
00
7E
22
20
78
40
44
FC
ENDCHAR
STARTCHAR Igrave
ENCODING 204
SWIDTH 345 0
DWIDTH 4 0
BBX 4 10 0 0
BITMAP
20
10
00
70
20
20
40
40
40
E0
ENDCHAR
STARTCHAR Iacute
ENCODING 205
SWIDTH 345 0
DWIDTH 4 0
BBX 4 10 0 0
BITMAP
10
20
00
70
20
20
40
40
40
E0
ENDCHAR
STARTCHAR Icircumflex
ENCODING 206
SWIDTH 345 0
DWIDTH 4 0
BBX 4 10 0 0
BITMAP
20
50
00
70
20
20
40
40
40
E0
ENDCHAR
STARTCHAR Idieresis
ENCODING 207
SWIDTH 345 0
DWIDTH 4 0
BBX 4 9 0 0
BITMAP
50
00
70
20
20
40
40
40
E0
ENDCHAR
STARTCHAR Eth
ENCODING 208
SWIDTH 770 0
DWIDTH 9 0
BBX 8 9 0 0
BITMAP
7C
22
21
21
F1
43
42
46
F8
ENDCHAR
STARTCHAR Ntilde
ENCODING 209
SWIDTH 763 0
DWIDTH 10 0
BBX 9 10 0 0
BITMAP
0D00
1600
0000
6380
3100
2900
2A00
4600
4200
E200
ENDCHAR
STARTCHAR Ograve
ENCODING 210
SWIDTH 753 0
DWIDTH 9 0
BBX 8 10 0 0
BITMAP
08
04
00
1E
63
C1
81
83
C6
78
ENDCHAR
STARTCHAR Oacute
ENCODING 211
SWIDTH 753 0
DWIDTH 9 0
BBX 8 10 0 0
BITMAP
04
08
00
1E
63
C1
81
83
C6
78
ENDCHAR
STARTCHAR Ocircumflex
ENCODING 212
SWIDTH 753 0
DWIDTH 9 0
BBX 8 10 0 0
BITMAP
08
14
00
1E
63
C1
81
83
C6
78
ENDCHAR
STARTCHAR Otilde
ENCODING 213
SWIDTH 753 0
DWIDTH 9 0
BBX 8 10 0 0
BITMAP
1A
2C
00
1E
63
C1
81
83
C6
78
ENDCHAR
STARTCHAR Odieresis
ENCODING 214
SWIDTH 753 0
DWIDTH 9 0
BBX 8 9 0 0
BITMAP
0A
00
1E
63
C1
81
83
C6
78
ENDCHAR
STARTCHAR multiply
ENCODING 215
SWIDTH 570 0
DWIDTH 7 0
BBX 5 5 1 1
BITMAP
88
50
20
50
88
ENDCHAR
STARTCHAR Oslash
ENCODING 216
SWIDTH 753 0
DWIDTH 9 0
BBX 8 9 0 0
BITMAP
1D
62
45
C9
91
93
A2
46
B8
ENDCHAR
STARTCHAR Ugrave
ENCODING 217
SWIDTH 794 0
DWIDTH 10 0
BBX 8 10 1 0
BITMAP
10
08
00
E7
42
42
84
84
CC
78
ENDCHAR
STARTCHAR Uacute
ENCODING 218
SWIDTH 794 0
DWIDTH 10 0
BBX 8 10 1 0
BITMAP
04
08
00
E7
42
42
84
84
CC
78
ENDCHAR
STARTCHAR Ucircumflex
ENCODING 219
SWIDTH 794 0
DWIDTH 10 0
BBX 8 10 1 0
BITMAP
08
14
00
E7
42
42
84
84
CC
78
ENDCHAR
STARTCHAR Udieresis
ENCODING 220
SWIDTH 794 0
DWIDTH 10 0
BBX 8 9 1 0
BITMAP
14
00
E7
42
42
84
84
CC
78
ENDCHAR
STARTCHAR Yacute
ENCODING 221
SWIDTH 591 0
DWIDTH 7 0
BBX 7 10 0 0
BITMAP
08
10
00
EE
44
48
50
20
40
E0
ENDCHAR
STARTCHAR Thorn
ENCODING 222
SWIDTH 604 0
DWIDTH 8 0
BBX 7 9 0 0
BITMAP
70
20
3C
22
22
46
7C
40
E0
ENDCHAR
STARTCHAR germandbls
ENCODING 223
SWIDTH 577 0
DWIDTH 7 0
BBX 9 13 -2 -3
BITMAP
0300
0480
0880
1900
0A00
1300
1100
1100
2B00
2E00
2000
A000
C000
ENDCHAR
STARTCHAR agrave
ENCODING 224
SWIDTH 561 0
DWIDTH 7 0
BBX 6 9 0 0
BITMAP
10
08
00
3C
44
CC
88
98
EC
ENDCHAR
STARTCHAR aacute
ENCODING 225
SWIDTH 561 0
DWIDTH 7 0
BBX 6 9 0 0
BITMAP
08
10
00
3C
44
CC
88
98
EC
ENDCHAR
STARTCHAR acircumflex
ENCODING 226
SWIDTH 561 0
DWIDTH 7 0
BBX 6 9 0 0
BITMAP
10
28
00
3C
44
CC
88
98
EC
ENDCHAR
STARTCHAR atilde
ENCODING 227
SWIDTH 561 0
DWIDTH 7 0
BBX 6 9 0 0
BITMAP
34
58
00
3C
44
CC
88
98
EC
ENDCHAR
STARTCHAR adieresis
ENCODING 228
SWIDTH 561 0
DWIDTH 7 0
BBX 6 8 0 0
BITMAP
28
00
3C
44
CC
88
98
EC
ENDCHAR
STARTCHAR aring
ENCODING 229
SWIDTH 561 0
DWIDTH 7 0
BBX 6 10 0 0
BITMAP
08
14
08
00
3C
44
CC
88
98
EC
ENDCHAR
STARTCHAR ae
ENCODING 230
SWIDTH 779 0
DWIDTH 10 0
BBX 9 7 0 0
BITMAP
0200
3F80
4480
C900
8E00
9800
E700
ENDCHAR
STARTCHAR ccedilla
ENCODING 231
SWIDTH 441 0
DWIDTH 6 0
BBX 6 9 0 -3
BITMAP
38
4C
C0
80
88
70
20
10
60
ENDCHAR
STARTCHAR egrave
ENCODING 232
SWIDTH 453 0
DWIDTH 6 0
BBX 5 9 0 0
BITMAP
20
10
00
38
48
90
E0
80
70
ENDCHAR
STARTCHAR eacute
ENCODING 233
SWIDTH 453 0
DWIDTH 6 0
BBX 5 9 0 0
BITMAP
08
10
00
38
48
90
E0
80
70
ENDCHAR
STARTCHAR ecircumflex
ENCODING 234
SWIDTH 453 0
DWIDTH 6 0
BBX 5 9 0 0
BITMAP
10
28
00
38
48
90
E0
80
70
ENDCHAR
STARTCHAR edieresis
ENCODING 235
SWIDTH 453 0
DWIDTH 6 0
BBX 5 8 0 0
BITMAP
28
00
38
48
90
E0
80
70
ENDCHAR
STARTCHAR igrave
ENCODING 236
SWIDTH 317 0
DWIDTH 4 0
BBX 3 9 0 0
BITMAP
80
40
00
C0
40
40
80
A0
C0
ENDCHAR
STARTCHAR iacute
ENCODING 237
SWIDTH 317 0
DWIDTH 4 0
BBX 3 9 0 0
BITMAP
20
40
00
C0
40
40
80
A0
C0
ENDCHAR
STARTCHAR icircumflex
ENCODING 238
SWIDTH 317 0
DWIDTH 4 0
BBX 3 9 0 0
BITMAP
40
A0
00
C0
40
40
80
A0
C0
ENDCHAR
STARTCHAR idieresis
ENCODING 239
SWIDTH 317 0
DWIDTH 4 0
BBX 3 8 0 0
BITMAP
A0
00
C0
40
40
80
A0
C0
ENDCHAR
STARTCHAR eth
ENCODING 240
SWIDTH 537 0
DWIDTH 7 0
BBX 6 9 0 0
BITMAP
28
10
28
3C
44
C4
8C
88
70
ENDCHAR
STARTCHAR ntilde
ENCODING 241
SWIDTH 618 0
DWIDTH 8 0
BBX 7 9 0 0
BITMAP
34
58
00
CC
54
64
C8
8A
8C
ENDCHAR
STARTCHAR ograve
ENCODING 242
SWIDTH 537 0
DWIDTH 7 0
BBX 6 9 0 0
BITMAP
20
10
00
38
44
C4
8C
88
70
ENDCHAR
STARTCHAR oacute
ENCODING 243
SWIDTH 537 0
DWIDTH 7 0
BBX 6 9 0 0
BITMAP
04
08
00
38
44
C4
8C
88
70
ENDCHAR
STARTCHAR ocircumflex
ENCODING 244
SWIDTH 537 0
DWIDTH 7 0
BBX 6 9 0 0
BITMAP
10
28
00
38
44
C4
8C
88
70
ENDCHAR
STARTCHAR otilde
ENCODING 245
SWIDTH 537 0
DWIDTH 7 0
BBX 6 9 0 0
BITMAP
34
58
00
38
44
C4
8C
88
70
ENDCHAR
STARTCHAR odieresis
ENCODING 246
SWIDTH 537 0
DWIDTH 7 0
BBX 6 8 0 0
BITMAP
28
00
38
44
C4
8C
88
70
ENDCHAR
STARTCHAR divide
ENCODING 247
SWIDTH 570 0
DWIDTH 7 0
BBX 5 5 1 1
BITMAP
20
00
F8
00
20
ENDCHAR
STARTCHAR oslash
ENCODING 248
SWIDTH 537 0
DWIDTH 7 0
BBX 6 8 0 -1
BITMAP
04
38
4C
D4
AC
C8
70
80
ENDCHAR
STARTCHAR ugrave
ENCODING 249
SWIDTH 618 0
DWIDTH 8 0
BBX 7 9 0 0
BITMAP
20
10
00
C4
44
4C
98
AA
CC
ENDCHAR
STARTCHAR uacute
ENCODING 250
SWIDTH 618 0
DWIDTH 8 0
BBX 7 9 0 0
BITMAP
08
10
00
C4
44
4C
98
AA
CC
ENDCHAR
STARTCHAR ucircumflex
ENCODING 251
SWIDTH 618 0
DWIDTH 8 0
BBX 7 9 0 0
BITMAP
10
28
00
C4
44
4C
98
AA
CC
ENDCHAR
STARTCHAR udieresis
ENCODING 252
SWIDTH 618 0
DWIDTH 8 0
BBX 7 8 0 0
BITMAP
28
00
C4
44
4C
98
AA
CC
ENDCHAR
STARTCHAR yacute
ENCODING 253
SWIDTH 468 0
DWIDTH 6 0
BBX 7 12 -2 -3
BITMAP
02
04
00
32
12
14
14
18
10
10
A0
C0
ENDCHAR
STARTCHAR thorn
ENCODING 254
SWIDTH 584 0
DWIDTH 7 0
BBX 7 11 -1 -3
BITMAP
60
20
2C
32
22
46
44
78
80
80
80
ENDCHAR
STARTCHAR ydieresis
ENCODING 255
SWIDTH 468 0
DWIDTH 6 0
BBX 7 11 -2 -3
BITMAP
0A
00
32
12
14
14
18
10
10
A0
C0
ENDCHAR
STARTCHAR Amacron
ENCODING 256
SWIDTH 624 0
DWIDTH 8 0
BBX 8 11 -1 0
BITMAP
1E
00
04
0C
0C
14
12
3E
22
42
E7
ENDCHAR
STARTCHAR amacron
ENCODING 257
SWIDTH 561 0
DWIDTH 7 0
BBX 6 8 0 0
BITMAP
3C
00
3C
44
CC
88
98
EC
ENDCHAR
STARTCHAR Abreve
ENCODING 258
SWIDTH 624 0
DWIDTH 8 0
BBX 8 12 -1 0
BITMAP
12
0C
00
04
0C
0C
14
12
3E
22
42
E7
ENDCHAR
STARTCHAR abreve
ENCODING 259
SWIDTH 561 0
DWIDTH 7 0
BBX 6 9 0 0
BITMAP
24
18
00
3C
44
CC
88
98
EC
ENDCHAR
STARTCHAR Aogonek
ENCODING 260
SWIDTH 624 0
DWIDTH 8 0
BBX 8 12 -1 -3
BITMAP
04
0C
0C
14
12
3E
22
42
E7
08
10
18
ENDCHAR
STARTCHAR aogonek
ENCODING 261
SWIDTH 561 0
DWIDTH 7 0
BBX 6 9 0 -3
BITMAP
3C
44
CC
88
98
EC
10
20
30
ENDCHAR
STARTCHAR Cacute
ENCODING 262
SWIDTH 661 0
DWIDTH 8 0
BBX 7 12 0 0
BITMAP
08
10
00
1E
62
40
C0
80
80
82
46
38
ENDCHAR
STARTCHAR cacute
ENCODING 263
SWIDTH 441 0
DWIDTH 6 0
BBX 6 9 0 0
BITMAP
08
10
00
38
4C
C0
80
88
70
ENDCHAR
STARTCHAR Ccircumflex
ENCODING 264
SWIDTH 661 0
DWIDTH 8 0
BBX 7 12 0 0
BITMAP
10
28
00
1E
62
40
C0
80
80
82
46
38
ENDCHAR
STARTCHAR ccircumflex
ENCODING 265
SWIDTH 441 0
DWIDTH 6 0
BBX 6 9 0 0
BITMAP
10
28
00
38
4C
C0
80
88
70
ENDCHAR
STARTCHAR Cdotaccent
ENCODING 266
SWIDTH 661 0
DWIDTH 8 0
BBX 7 11 0 0
BITMAP
10
00
1E
62
40
C0
80
80
82
46
38
ENDCHAR
STARTCHAR cdotaccent
ENCODING 267
SWIDTH 441 0
DWIDTH 6 0
BBX 6 8 0 0
BITMAP
10
00
38
4C
C0
80
88
70
ENDCHAR
STARTCHAR Ccaron
ENCODING 268
SWIDTH 661 0
DWIDTH 8 0
BBX 7 12 0 0
BITMAP
28
10
00
1E
62
40
C0
80
80
82
46
38
ENDCHAR
STARTCHAR ccaron
ENCODING 269
SWIDTH 441 0
DWIDTH 6 0
BBX 6 9 0 0
BITMAP
28
10
00
38
4C
C0
80
88
70
ENDCHAR
STARTCHAR Dcaron
ENCODING 270
SWIDTH 763 0
DWIDTH 9 0
BBX 8 12 0 0
BITMAP
14
08
00
7C
22
21
21
41
43
42
46
F8
ENDCHAR
STARTCHAR dcaron
ENCODING 271
SWIDTH 774 0
DWIDTH 10 0
BBX 9 10 0 0
BITMAP
0600
0280
0280
0500
3C00
4400
CC00
8800
9800
EC00
ENDCHAR
STARTCHAR Dcroat
ENCODING 272
SWIDTH 770 0
DWIDTH 9 0
BBX 8 9 0 0
BITMAP
7C
22
21
21
F1
43
42
46
F8
ENDCHAR
STARTCHAR dcroat
ENCODING 273
SWIDTH 587 0
DWIDTH 7 0
BBX 7 10 0 0
BITMAP
06
02
1E
04
3C
44
CC
88
98
EC
ENDCHAR
STARTCHAR Emacron
ENCODING 274
SWIDTH 596 0
DWIDTH 8 0
BBX 7 11 0 0
BITMAP
3C
00
7E
22
20
24
3C
44
40
44
FC
ENDCHAR
STARTCHAR emacron
ENCODING 275
SWIDTH 453 0
DWIDTH 6 0
BBX 5 8 0 0
BITMAP
78
00
38
48
90
E0
80
70
ENDCHAR
STARTCHAR Ebreve
ENCODING 276
SWIDTH 596 0
DWIDTH 8 0
BBX 7 12 0 0
BITMAP
24
18
00
7E
22
20
24
3C
44
40
44
FC
ENDCHAR
STARTCHAR ebreve
ENCODING 277
SWIDTH 453 0
DWIDTH 6 0
BBX 5 9 0 0
BITMAP
48
30
00
38
48
90
E0
80
70
ENDCHAR
STARTCHAR Edotaccent
ENCODING 278
SWIDTH 596 0
DWIDTH 8 0
BBX 7 11 0 0
BITMAP
10
00
7E
22
20
24
3C
44
40
44
FC
ENDCHAR
STARTCHAR edotaccent
ENCODING 279
SWIDTH 453 0
DWIDTH 6 0
BBX 5 8 0 0
BITMAP
10
00
38
48
90
E0
80
70
ENDCHAR
STARTCHAR Eogonek
ENCODING 280
SWIDTH 596 0
DWIDTH 8 0
BBX 7 12 0 -3
BITMAP
7E
22
20
24
3C
44
40
44
FC
10
20
30
ENDCHAR
STARTCHAR eogonek
ENCODING 281
SWIDTH 453 0
DWIDTH 6 0
BBX 5 9 0 -3
BITMAP
38
48
90
E0
80
70
20
40
60
ENDCHAR
STARTCHAR Ecaron
ENCODING 282
SWIDTH 596 0
DWIDTH 8 0
BBX 7 12 0 0
BITMAP
28
10
00
7E
22
20
24
3C
44
40
44
FC
ENDCHAR
STARTCHAR ecaron
ENCODING 283
SWIDTH 453 0
DWIDTH 6 0
BBX 5 9 0 0
BITMAP
28
10
00
38
48
90
E0
80
70
ENDCHAR
STARTCHAR Gcircumflex
ENCODING 284
SWIDTH 709 0
DWIDTH 9 0
BBX 8 12 0 0
BITMAP
08
14
00
1E
62
40
C0
80
87
82
46
3C
ENDCHAR
STARTCHAR gcircumflex
ENCODING 285
SWIDTH 499 0
DWIDTH 6 0
BBX 7 12 -1 -3
BITMAP
08
14
00
1E
24
4C
58
20
38
4C
84
78
ENDCHAR
STARTCHAR Gbreve
ENCODING 286
SWIDTH 709 0
DWIDTH 9 0
BBX 8 12 0 0
BITMAP
24
18
00
1E
62
40
C0
80
87
82
46
3C
ENDCHAR
STARTCHAR gbreve
ENCODING 287
SWIDTH 499 0
DWIDTH 6 0
BBX 7 12 -1 -3
BITMAP
24
18
00
1E
24
4C
58
20
38
4C
84
78
ENDCHAR
STARTCHAR Gdotaccent
ENCODING 288
SWIDTH 709 0
DWIDTH 9 0
BBX 8 11 0 0
BITMAP
08
00
1E
62
40
C0
80
87
82
46
3C
ENDCHAR
STARTCHAR gdotaccent
ENCODING 289
SWIDTH 499 0
DWIDTH 6 0
BBX 7 11 -1 -3
BITMAP
08
00
1E
24
4C
58
20
38
4C
84
78
ENDCHAR
STARTCHAR Gcommaaccent
ENCODING 290
SWIDTH 709 0
DWIDTH 9 0
BBX 8 13 0 -4
BITMAP
1E
62
40
C0
80
87
82
46
3C
00
08
08
10
ENDCHAR
STARTCHAR gcommaaccent
ENCODING 291
SWIDTH 499 0
DWIDTH 6 0
BBX 7 13 -1 -3
BITMAP
08
10
10
00
1E
24
4C
58
20
38
4C
84
78
ENDCHAR
STARTCHAR Hcircumflex
ENCODING 292
SWIDTH 775 0
DWIDTH 10 0
BBX 9 12 0 0
BITMAP
0800
1400
0000
7380
2100
2100
2100
3E00
4200
4200
4200
E700
ENDCHAR
STARTCHAR hcircumflex
ENCODING 293
SWIDTH 607 0
DWIDTH 8 0
BBX 7 13 0 0
BITMAP
20
50
00
60
20
20
40
4C
54
64
C8
8A
8C
ENDCHAR
STARTCHAR Hbar
ENCODING 294
SWIDTH 775 0
DWIDTH 10 0
BBX 9 9 0 0
BITMAP
7380
2100
FF80
2100
3E00
4200
4200
4200
E700
ENDCHAR
STARTCHAR hbar
ENCODING 295
SWIDTH 607 0
DWIDTH 8 0
BBX 7 10 0 0
BITMAP
60
20
F0
40
4C
54
64
C8
8A
8C
ENDCHAR
STARTCHAR Itilde
ENCODING 296
SWIDTH 345 0
DWIDTH 4 0
BBX 5 12 0 0
BITMAP
68
B0
00
70
20
20
20
40
40
40
40
E0
ENDCHAR
STARTCHAR itilde
ENCODING 297
SWIDTH 317 0
DWIDTH 4 0
BBX 5 9 -1 0
BITMAP
68
B0
00
60
20
20
40
50
60
ENDCHAR
STARTCHAR Imacron
ENCODING 298
SWIDTH 345 0
DWIDTH 4 0
BBX 4 11 0 0
BITMAP
F0
00
70
20
20
20
40
40
40
40
E0
ENDCHAR
STARTCHAR imacron
ENCODING 299
SWIDTH 317 0
DWIDTH 4 0
BBX 4 8 -1 0
BITMAP
F0
00
60
20
20
40
50
60
ENDCHAR
STARTCHAR Ibreve
ENCODING 300
SWIDTH 345 0
DWIDTH 4 0
BBX 4 12 0 0
BITMAP
90
60
00
70
20
20
20
40
40
40
40
E0
ENDCHAR
STARTCHAR ibreve
ENCODING 301
SWIDTH 317 0
DWIDTH 4 0
BBX 4 9 -1 0
BITMAP
90
60
00
60
20
20
40
50
60
ENDCHAR
STARTCHAR Iogonek
ENCODING 302
SWIDTH 345 0
DWIDTH 4 0
BBX 4 12 0 -3
BITMAP
70
20
20
20
40
40
40
40
E0
40
80
C0
ENDCHAR
STARTCHAR iogonek
ENCODING 303
SWIDTH 317 0
DWIDTH 4 0
BBX 3 11 0 -3
BITMAP
40
00
C0
40
40
80
A0
C0
40
80
C0
ENDCHAR
STARTCHAR Idotaccent
ENCODING 304
SWIDTH 345 0
DWIDTH 4 0
BBX 4 11 0 0
BITMAP
20
00
70
20
20
20
40
40
40
40
E0
ENDCHAR
STARTCHAR dotlessi
ENCODING 305
SWIDTH 317 0
DWIDTH 4 0
BBX 3 6 0 0
BITMAP
C0
40
40
80
A0
C0
ENDCHAR
STARTCHAR IJ
ENCODING 306
SWIDTH 680 0
DWIDTH 8 0
BBX 8 11 0 -2
BITMAP
77
22
22
22
42
44
44
44
E4
04
18
ENDCHAR
STARTCHAR ij
ENCODING 307
SWIDTH 610 0
DWIDTH 7 0
BBX 6 11 0 -3
BITMAP
44
00
CC
44
44
88
A8
C8
08
28
30
ENDCHAR
STARTCHAR Jcircumflex
ENCODING 308
SWIDTH 352 0
DWIDTH 4 0
BBX 5 14 -1 -2
BITMAP
10
28
00
38
10
10
10
10
20
20
20
20
20
C0
ENDCHAR
STARTCHAR jcircumflex
ENCODING 309
SWIDTH 309 0
DWIDTH 3 0
BBX 4 12 -2 -3
BITMAP
20
50
00
30
10
10
20
20
20
20
A0
C0
ENDCHAR
STARTCHAR Kcommaaccent
ENCODING 310
SWIDTH 650 0
DWIDTH 8 0
BBX 8 13 0 -4
BITMAP
77
22
24
28
50
48
48
44
E6
00
10
10
20
ENDCHAR
STARTCHAR kcommaaccent
ENCODING 311
SWIDTH 545 0
DWIDTH 7 0
BBX 6 14 0 -4
BITMAP
60
20
20
44
4C
50
60
90
94
98
00
10
10
20
ENDCHAR
STARTCHAR kgreenlandic
ENCODING 312
SWIDTH 545 0
DWIDTH 7 0
BBX 6 6 0 0
BITMAP
4C
50
60
90
94
98
ENDCHAR
STARTCHAR Lacute
ENCODING 313
SWIDTH 565 0
DWIDTH 7 0
BBX 6 12 0 0
BITMAP
10
20
00
70
20
20
20
40
40
40
44
FC
ENDCHAR
STARTCHAR lacute
ENCODING 314
SWIDTH 306 0
DWIDTH 4 0
BBX 3 13 0 0
BITMAP
20
40
00
60
20
20
40
40
40
40
80
A0
C0
ENDCHAR
STARTCHAR Lcommaaccent
ENCODING 315
SWIDTH 565 0
DWIDTH 7 0
BBX 6 13 0 -4
BITMAP
70
20
20
20
40
40
40
44
FC
00
10
10
20
ENDCHAR
STARTCHAR lcommaaccent
ENCODING 316
SWIDTH 306 0
DWIDTH 4 0
BBX 3 14 0 -4
BITMAP
60
20
20
40
40
40
40
80
A0
C0
00
40
40
80
ENDCHAR
STARTCHAR Lcaron
ENCODING 317
SWIDTH 753 0
DWIDTH 10 0
BBX 9 9 0 0
BITMAP
7080
2080
2100
2000
4000
4000
4000
4400
FC00
ENDCHAR
STARTCHAR lcaron
ENCODING 318
SWIDTH 507 0
DWIDTH 7 0
BBX 6 10 0 0
BITMAP
60
24
24
48
40
40
40
80
A0
C0
ENDCHAR
STARTCHAR Ldot
ENCODING 319
SWIDTH 802 0
DWIDTH 10 0
BBX 9 9 0 0
BITMAP
7000
2000
2000
2000
4000
4080
4000
4400
FC00
ENDCHAR
STARTCHAR ldot
ENCODING 320
SWIDTH 556 0
DWIDTH 7 0
BBX 6 10 0 0
BITMAP
60
20
20
40
40
40
44
80
A0
C0
ENDCHAR
STARTCHAR Lslash
ENCODING 321
SWIDTH 571 0
DWIDTH 7 0
BBX 6 9 0 0
BITMAP
70
20
20
30
C0
40
40
44
FC
ENDCHAR
STARTCHAR lslash
ENCODING 322
SWIDTH 318 0
DWIDTH 4 0
BBX 4 10 0 0
BITMAP
60
20
20
40
70
C0
40
80
A0
C0
ENDCHAR
STARTCHAR Nacute
ENCODING 323
SWIDTH 763 0
DWIDTH 10 0
BBX 9 12 0 0
BITMAP
0400
0800
0000
6380
3100
3100
2900
4900
4600
4600
4200
E200
ENDCHAR
STARTCHAR nacute
ENCODING 324
SWIDTH 618 0
DWIDTH 8 0
BBX 7 9 0 0
BITMAP
08
10
00
CC
54
64
C8
8A
8C
ENDCHAR
STARTCHAR Ncommaaccent
ENCODING 325
SWIDTH 763 0
DWIDTH 10 0
BBX 9 13 0 -4
BITMAP
6380
3100
3100
2900
4900
4600
4600
4200
E200
0000
0800
0800
1000
ENDCHAR
STARTCHAR ncommaaccent
ENCODING 326
SWIDTH 618 0
DWIDTH 8 0
BBX 7 10 0 -4
BITMAP
CC
54
64
C8
8A
8C
00
10
10
20
ENDCHAR
STARTCHAR Ncaron
ENCODING 327
SWIDTH 763 0
DWIDTH 10 0
BBX 9 12 0 0
BITMAP
1400
0800
0000
6380
3100
3100
2900
4900
4600
4600
4200
E200
ENDCHAR
STARTCHAR ncaron
ENCODING 328
SWIDTH 618 0
DWIDTH 8 0
BBX 7 9 0 0
BITMAP
28
10
00
CC
54
64
C8
8A
8C
ENDCHAR
STARTCHAR napostrophe
ENCODING 329
SWIDTH 823 0
DWIDTH 11 0
BBX 10 9 0 0
BITMAP
4000
4000
8000
1980
0A80
0C80
1900
1140
1180
ENDCHAR
STARTCHAR Eng
ENCODING 330
SWIDTH 763 0
DWIDTH 10 0
BBX 9 12 0 -3
BITMAP
6380
3100
3100
2900
4900
4600
4600
4200
E200
0200
0A00
0C00
ENDCHAR
STARTCHAR eng
ENCODING 331
SWIDTH 618 0
DWIDTH 8 0
BBX 6 9 0 -3
BITMAP
CC
54
64
C8
88
88
08
28
30
ENDCHAR
STARTCHAR Omacron
ENCODING 332
SWIDTH 753 0
DWIDTH 9 0
BBX 8 11 0 0
BITMAP
3C
00
1C
62
41
C1
81
83
82
46
38
ENDCHAR
STARTCHAR omacron
ENCODING 333
SWIDTH 537 0
DWIDTH 7 0
BBX 6 8 0 0
BITMAP
78
00
38
44
C4
8C
88
70
ENDCHAR
STARTCHAR Obreve
ENCODING 334
SWIDTH 753 0
DWIDTH 9 0
BBX 8 12 0 0
BITMAP
24
18
00
1C
62
41
C1
81
83
82
46
38
ENDCHAR
STARTCHAR obreve
ENCODING 335
SWIDTH 537 0
DWIDTH 7 0
BBX 6 9 0 0
BITMAP
48
30
00
38
44
C4
8C
88
70
ENDCHAR
STARTCHAR Ohungarumlaut
ENCODING 336
SWIDTH 753 0
DWIDTH 9 0
BBX 8 12 0 0
BITMAP
14
28
00
1C
62
41
C1
81
83
82
46
38
ENDCHAR
STARTCHAR ohungarumlaut
ENCODING 337
SWIDTH 537 0
DWIDTH 7 0
BBX 6 9 0 0
BITMAP
14
28
00
38
44
C4
8C
88
70
ENDCHAR
STARTCHAR OE
ENCODING 338
SWIDTH 1020 0
DWIDTH 13 0
BBX 12 9 0 0
BITMAP
1DF0
6310
4100
C120
83E0
8220
8200
4620
3BE0
ENDCHAR
STARTCHAR oe
ENCODING 339
SWIDTH 806 0
DWIDTH 11 0
BBX 10 6 0 0
BITMAP
39C0
4640
C480
8F00
8C00
7380
ENDCHAR
STARTCHAR Racute
ENCODING 340
SWIDTH 640 0
DWIDTH 8 0
BBX 7 12 0 0
BITMAP
08
10
00
7C
22
22
26
3C
48
44
44
E6
ENDCHAR
STARTCHAR racute
ENCODING 341
SWIDTH 402 0
DWIDTH 5 0
BBX 5 9 0 0
BITMAP
10
20
00
D8
68
40
C0
80
80
ENDCHAR
STARTCHAR Rcommaaccent
ENCODING 342
SWIDTH 640 0
DWIDTH 8 0
BBX 7 13 0 -4
BITMAP
7C
22
22
26
3C
48
44
44
E6
00
10
10
20
ENDCHAR
STARTCHAR rcommaaccent
ENCODING 343
SWIDTH 402 0
DWIDTH 5 0
BBX 5 10 0 -4
BITMAP
D8
68
40
C0
80
80
00
40
40
80
ENDCHAR
STARTCHAR Rcaron
ENCODING 344
SWIDTH 640 0
DWIDTH 8 0
BBX 7 12 0 0
BITMAP
28
10
00
7C
22
22
26
3C
48
44
44
E6
ENDCHAR
STARTCHAR rcaron
ENCODING 345
SWIDTH 402 0
DWIDTH 5 0
BBX 5 9 0 0
BITMAP
50
20
00
D8
68
40
C0
80
80
ENDCHAR
STARTCHAR Sacute
ENCODING 346
SWIDTH 533 0
DWIDTH 7 0
BBX 6 12 0 0
BITMAP
08
10
00
3C
44
40
60
30
18
08
88
F0
ENDCHAR
STARTCHAR sacute
ENCODING 347
SWIDTH 389 0
DWIDTH 6 0
BBX 5 9 0 0
BITMAP
10
20
00
38
48
60
30
90
E0
ENDCHAR
STARTCHAR Scircumflex
ENCODING 348
SWIDTH 533 0
DWIDTH 7 0
BBX 6 12 0 0
BITMAP
10
28
00
3C
44
40
60
30
18
08
88
F0
ENDCHAR
STARTCHAR scircumflex
ENCODING 349
SWIDTH 389 0
DWIDTH 6 0
BBX 5 9 0 0
BITMAP
10
28
00
38
48
60
30
90
E0
ENDCHAR
STARTCHAR Scedilla
ENCODING 350
SWIDTH 533 0
DWIDTH 7 0
BBX 6 12 0 -3
BITMAP
3C
44
40
60
30
18
08
88
F0
20
10
60
ENDCHAR
STARTCHAR scedilla
ENCODING 351
SWIDTH 389 0
DWIDTH 6 0
BBX 5 9 0 -3
BITMAP
38
48
60
30
90
E0
40
20
C0
ENDCHAR
STARTCHAR Scaron
ENCODING 352
SWIDTH 533 0
DWIDTH 7 0
BBX 6 10 0 0
BITMAP
14
08
00
3C
44
60
30
18
88
F0
ENDCHAR
STARTCHAR scaron
ENCODING 353
SWIDTH 389 0
DWIDTH 6 0
BBX 5 9 0 0
BITMAP
28
10
00
38
48
60
30
90
E0
ENDCHAR
STARTCHAR Tcommaaccent
ENCODING 354
SWIDTH 606 0
DWIDTH 7 0
BBX 7 12 0 -3
BITMAP
FE
92
10
10
20
20
20
20
70
20
10
60
ENDCHAR
STARTCHAR tcommaaccent
ENCODING 355
SWIDTH 341 0
DWIDTH 4 0
BBX 4 11 0 -3
BITMAP
40
40
F0
40
C0
80
A0
C0
40
20
C0
ENDCHAR
STARTCHAR Tcaron
ENCODING 356
SWIDTH 606 0
DWIDTH 7 0
BBX 7 12 0 0
BITMAP
28
10
00
FE
92
10
10
20
20
20
20
70
ENDCHAR
STARTCHAR tcaron
ENCODING 357
SWIDTH 540 0
DWIDTH 7 0
BBX 6 9 0 0
BITMAP
04
44
48
F0
40
C0
80
A0
C0
ENDCHAR
STARTCHAR Tbar
ENCODING 358
SWIDTH 606 0
DWIDTH 7 0
BBX 7 9 0 0
BITMAP
FE
92
10
10
3C
20
20
20
70
ENDCHAR
STARTCHAR tbar
ENCODING 359
SWIDTH 341 0
DWIDTH 4 0
BBX 4 8 0 0
BITMAP
40
40
F0
40
F0
80
A0
C0
ENDCHAR
STARTCHAR Utilde
ENCODING 360
SWIDTH 794 0
DWIDTH 10 0
BBX 8 12 1 0
BITMAP
1A
2C
00
E7
42
42
42
84
84
84
CC
78
ENDCHAR
STARTCHAR utilde
ENCODING 361
SWIDTH 618 0
DWIDTH 8 0
BBX 7 9 0 0
BITMAP
34
58
00
C4
44
4C
98
AA
CC
ENDCHAR
STARTCHAR Umacron
ENCODING 362
SWIDTH 794 0
DWIDTH 10 0
BBX 8 11 1 0
BITMAP
3C
00
E7
42
42
42
84
84
84
CC
78
ENDCHAR
STARTCHAR umacron
ENCODING 363
SWIDTH 618 0
DWIDTH 8 0
BBX 7 8 0 0
BITMAP
78
00
C4
44
4C
98
AA
CC
ENDCHAR
STARTCHAR Ubreve
ENCODING 364
SWIDTH 794 0
DWIDTH 10 0
BBX 8 12 1 0
BITMAP
24
18
00
E7
42
42
42
84
84
84
CC
78
ENDCHAR
STARTCHAR ubreve
ENCODING 365
SWIDTH 618 0
DWIDTH 8 0
BBX 7 9 0 0
BITMAP
48
30
00
C4
44
4C
98
AA
CC
ENDCHAR
STARTCHAR Uring
ENCODING 366
SWIDTH 794 0
DWIDTH 10 0
BBX 8 13 1 0
BITMAP
08
14
08
00
E7
42
42
42
84
84
84
CC
78
ENDCHAR
STARTCHAR uring
ENCODING 367
SWIDTH 618 0
DWIDTH 8 0
BBX 7 10 0 0
BITMAP
10
28
10
00
C4
44
4C
98
AA
CC
ENDCHAR
STARTCHAR Uhungarumlaut
ENCODING 368
SWIDTH 794 0
DWIDTH 10 0
BBX 8 12 1 0
BITMAP
14
28
00
E7
42
42
42
84
84
84
CC
78
ENDCHAR
STARTCHAR uhungarumlaut
ENCODING 369
SWIDTH 618 0
DWIDTH 8 0
BBX 7 9 0 0
BITMAP
28
50
00
C4
44
4C
98
AA
CC
ENDCHAR
STARTCHAR Uogonek
ENCODING 370
SWIDTH 794 0
DWIDTH 10 0
BBX 8 12 1 -3
BITMAP
E7
42
42
42
84
84
84
CC
78
10
20
30
ENDCHAR
STARTCHAR uogonek
ENCODING 371
SWIDTH 618 0
DWIDTH 8 0
BBX 7 9 0 -3
BITMAP
C4
44
4C
98
AA
CC
10
20
30
ENDCHAR
STARTCHAR Wcircumflex
ENCODING 372
SWIDTH 946 0
DWIDTH 12 0
BBX 12 12 0 0
BITMAP
0200
0500
0000
E270
4620
4620
4A40
4A40
5280
3180
2100
2100
ENDCHAR
STARTCHAR wcircumflex
ENCODING 373
SWIDTH 785 0
DWIDTH 10 0
BBX 8 9 1 0
BITMAP
10
28
00
C9
49
D9
91
92
6C
ENDCHAR
STARTCHAR Ycircumflex
ENCODING 374
SWIDTH 591 0
DWIDTH 7 0
BBX 7 12 0 0
BITMAP
10
28
00
EE
44
48
50
20
20
40
40
E0
ENDCHAR
STARTCHAR ycircumflex
ENCODING 375
SWIDTH 468 0
DWIDTH 6 0
BBX 7 12 -2 -3
BITMAP
08
14
00
32
12
14
14
18
10
10
A0
C0
ENDCHAR
STARTCHAR Ydieresis
ENCODING 376
SWIDTH 591 0
DWIDTH 7 0
BBX 7 9 0 0
BITMAP
14
00
EE
44
48
50
20
40
E0
ENDCHAR
STARTCHAR Zacute
ENCODING 377
SWIDTH 622 0
DWIDTH 8 0
BBX 7 12 0 0
BITMAP
08
10
00
7E
42
04
08
10
20
40
84
FC
ENDCHAR
STARTCHAR zacute
ENCODING 378
SWIDTH 468 0
DWIDTH 6 0
BBX 5 9 0 0
BITMAP
10
20
00
78
90
20
40
88
F0
ENDCHAR
STARTCHAR Zdotaccent
ENCODING 379
SWIDTH 622 0
DWIDTH 8 0
BBX 7 11 0 0
BITMAP
10
00
7E
42
04
08
10
20
40
84
FC
ENDCHAR
STARTCHAR zdotaccent
ENCODING 380
SWIDTH 468 0
DWIDTH 6 0
BBX 5 8 0 0
BITMAP
20
00
78
90
20
40
88
F0
ENDCHAR
STARTCHAR Zcaron
ENCODING 381
SWIDTH 622 0
DWIDTH 8 0
BBX 7 10 0 0
BITMAP
14
08
00
7E
44
08
10
20
44
FC
ENDCHAR
STARTCHAR zcaron
ENCODING 382
SWIDTH 468 0
DWIDTH 6 0
BBX 5 9 0 0
BITMAP
50
20
00
78
90
20
40
88
F0
ENDCHAR
STARTCHAR uni0186
ENCODING 390
SWIDTH 661 0
DWIDTH 8 0
BBX 7 9 0 0
BITMAP
38
C4
82
02
02
06
04
8C
F0
ENDCHAR
STARTCHAR uni0189
ENCODING 393
SWIDTH 770 0
DWIDTH 9 0
BBX 8 9 0 0
BITMAP
7C
22
21
21
F1
43
42
46
F8
ENDCHAR
STARTCHAR uni018E
ENCODING 398
SWIDTH 596 0
DWIDTH 8 0
BBX 7 9 0 0
BITMAP
7E
44
04
44
78
48
08
88
FC
ENDCHAR
STARTCHAR florin
ENCODING 402
SWIDTH 530 0
DWIDTH 6 0
BBX 6 11 0 -2
BITMAP
0C
14
10
7C
10
10
20
20
20
A0
C0
ENDCHAR
STARTCHAR uni0197
ENCODING 407
SWIDTH 345 0
DWIDTH 4 0
BBX 4 9 0 0
BITMAP
70
20
20
20
F0
40
40
40
E0
ENDCHAR
STARTCHAR uni019A
ENCODING 410
SWIDTH 306 0
DWIDTH 4 0
BBX 4 10 0 0
BITMAP
60
20
20
40
F0
40
40
80
A0
C0
ENDCHAR
STARTCHAR uni019D
ENCODING 413
SWIDTH 763 0
DWIDTH 10 0
BBX 10 12 -1 -3
BITMAP
31C0
1880
1880
1480
2480
2300
2300
2100
2100
2000
A000
C000
ENDCHAR
STARTCHAR uni019F
ENCODING 415
SWIDTH 753 0
DWIDTH 9 0
BBX 8 9 0 0
BITMAP
1C
62
41
C1
FF
83
82
46
38
ENDCHAR
STARTCHAR Ohorn
ENCODING 416
SWIDTH 753 0
DWIDTH 9 0
BBX 10 9 0 0
BITMAP
1C40
6240
4180
C100
8100
8300
8200
4600
3800
ENDCHAR
STARTCHAR ohorn
ENCODING 417
SWIDTH 537 0
DWIDTH 7 0
BBX 8 6 0 0
BITMAP
39
45
C6
8C
88
70
ENDCHAR
STARTCHAR Uhorn
ENCODING 431
SWIDTH 794 0
DWIDTH 10 0
BBX 10 9 1 0
BITMAP
E740
4240
4280
4200
8400
8400
8400
CC00
7800
ENDCHAR
STARTCHAR uhorn
ENCODING 432
SWIDTH 618 0
DWIDTH 8 0
BBX 9 6 0 0
BITMAP
C480
4480
4D00
9800
AA00
CC00
ENDCHAR
STARTCHAR uni01B5
ENCODING 437
SWIDTH 622 0
DWIDTH 8 0
BBX 7 9 0 0
BITMAP
7E
42
04
08
3C
20
40
84
FC
ENDCHAR
STARTCHAR uni01B6
ENCODING 438
SWIDTH 468 0
DWIDTH 6 0
BBX 5 6 0 0
BITMAP
78
90
78
40
88
F0
ENDCHAR
STARTCHAR uni01BB
ENCODING 443
SWIDTH 530 0
DWIDTH 6 0
BBX 6 9 0 0
BITMAP
38
64
04
0C
FC
60
C0
88
F8
ENDCHAR
STARTCHAR uni01BC
ENCODING 444
SWIDTH 530 0
DWIDTH 6 0
BBX 6 9 0 0
BITMAP
3C
20
40
70
08
08
08
D8
70
ENDCHAR
STARTCHAR uni01C0
ENCODING 448
SWIDTH 270 0
DWIDTH 3 0
BBX 1 9 1 0
BITMAP
80
80
80
80
80
80
80
80
80
ENDCHAR
STARTCHAR uni01C2
ENCODING 450
SWIDTH 570 0
DWIDTH 7 0
BBX 5 9 1 -1
BITMAP
20
20
20
F8
20
F8
20
20
20
ENDCHAR
STARTCHAR uni01C3
ENCODING 451
SWIDTH 240 0
DWIDTH 3 0
BBX 2 9 0 0
BITMAP
40
40
40
40
80
80
80
00
80
ENDCHAR
STARTCHAR uni01CD
ENCODING 461
SWIDTH 624 0
DWIDTH 8 0
BBX 8 12 -1 0
BITMAP
14
08
00
04
0C
0C
14
12
3E
22
42
E7
ENDCHAR
STARTCHAR uni01CE
ENCODING 462
SWIDTH 561 0
DWIDTH 7 0
BBX 6 9 0 0
BITMAP
28
10
00
3C
44
CC
88
98
EC
ENDCHAR
STARTCHAR uni01CF
ENCODING 463
SWIDTH 345 0
DWIDTH 4 0
BBX 4 12 0 0
BITMAP
50
20
00
70
20
20
20
40
40
40
40
E0
ENDCHAR
STARTCHAR uni01D0
ENCODING 464
SWIDTH 317 0
DWIDTH 4 0
BBX 3 9 0 0
BITMAP
A0
40
00
C0
40
40
80
A0
C0
ENDCHAR
STARTCHAR uni01D1
ENCODING 465
SWIDTH 753 0
DWIDTH 9 0
BBX 8 12 0 0
BITMAP
14
08
00
1C
62
41
C1
81
83
82
46
38
ENDCHAR
STARTCHAR uni01D2
ENCODING 466
SWIDTH 537 0
DWIDTH 7 0
BBX 6 9 0 0
BITMAP
28
10
00
38
44
C4
8C
88
70
ENDCHAR
STARTCHAR uni01D3
ENCODING 467
SWIDTH 794 0
DWIDTH 10 0
BBX 8 12 1 0
BITMAP
14
08
00
E7
42
42
42
84
84
84
CC
78
ENDCHAR
STARTCHAR uni01D4
ENCODING 468
SWIDTH 618 0
DWIDTH 8 0
BBX 7 9 0 0
BITMAP
28
10
00
C4
44
4C
98
AA
CC
ENDCHAR
STARTCHAR uni01D5
ENCODING 469
SWIDTH 794 0
DWIDTH 10 0
BBX 8 11 1 0
BITMAP
3C
00
14
00
E7
42
42
84
84
CC
78
ENDCHAR
STARTCHAR uni01D6
ENCODING 470
SWIDTH 618 0
DWIDTH 8 0
BBX 7 10 0 0
BITMAP
78
00
28
00
C4
44
4C
98
AA
CC
ENDCHAR
STARTCHAR uni01D7
ENCODING 471
SWIDTH 794 0
DWIDTH 10 0
BBX 8 12 1 0
BITMAP
08
10
00
14
00
E7
42
42
84
84
CC
78
ENDCHAR
STARTCHAR uni01D8
ENCODING 472
SWIDTH 618 0
DWIDTH 8 0
BBX 7 11 0 0
BITMAP
10
20
00
28
00
C4
44
4C
98
AA
CC
ENDCHAR
STARTCHAR uni01D9
ENCODING 473
SWIDTH 794 0
DWIDTH 10 0
BBX 8 12 1 0
BITMAP
14
08
00
14
00
E7
42
42
84
84
CC
78
ENDCHAR
STARTCHAR uni01DA
ENCODING 474
SWIDTH 618 0
DWIDTH 8 0
BBX 7 11 0 0
BITMAP
28
10
00
28
00
C4
44
4C
98
AA
CC
ENDCHAR
STARTCHAR uni01DB
ENCODING 475
SWIDTH 794 0
DWIDTH 10 0
BBX 8 12 1 0
BITMAP
10
08
00
14
00
E7
42
42
84
84
CC
78
ENDCHAR
STARTCHAR uni01DC
ENCODING 476
SWIDTH 618 0
DWIDTH 8 0
BBX 7 11 0 0
BITMAP
20
10
00
28
00
C4
44
4C
98
AA
CC
ENDCHAR
STARTCHAR uni01DD
ENCODING 477
SWIDTH 453 0
DWIDTH 6 0
BBX 5 6 0 0
BITMAP
70
08
38
48
90
E0
ENDCHAR
STARTCHAR uni01DE
ENCODING 478
SWIDTH 624 0
DWIDTH 8 0
BBX 8 11 -1 0
BITMAP
1E
00
0A
00
04
0C
14
12
3E
42
E7
ENDCHAR
STARTCHAR uni01DF
ENCODING 479
SWIDTH 561 0
DWIDTH 7 0
BBX 6 10 0 0
BITMAP
3C
00
28
00
3C
44
CC
88
98
EC
ENDCHAR
STARTCHAR uni01E0
ENCODING 480
SWIDTH 624 0
DWIDTH 8 0
BBX 8 13 -1 0
BITMAP
1E
00
08
00
04
0C
0C
14
12
3E
22
42
E7
ENDCHAR
STARTCHAR uni01E1
ENCODING 481
SWIDTH 561 0
DWIDTH 7 0
BBX 6 10 0 0
BITMAP
3C
00
10
00
3C
44
CC
88
98
EC
ENDCHAR
STARTCHAR uni01E2
ENCODING 482
SWIDTH 880 0
DWIDTH 11 0
BBX 11 11 -1 0
BITMAP
0F00
0000
1FE0
0A20
0A00
1240
1FC0
2440
2400
4440
EFC0
ENDCHAR
STARTCHAR uni01E3
ENCODING 483
SWIDTH 779 0
DWIDTH 10 0
BBX 9 9 0 0
BITMAP
1E00
0000
0200
3F80
4480
C900
8E00
9800
E700
ENDCHAR
STARTCHAR uni01E4
ENCODING 484
SWIDTH 709 0
DWIDTH 9 0
BBX 8 9 0 0
BITMAP
1E
62
40
C0
80
87
8F
46
3C
ENDCHAR
STARTCHAR uni01E5
ENCODING 485
SWIDTH 499 0
DWIDTH 6 0
BBX 7 9 -1 -3
BITMAP
1E
24
4C
58
20
38
FE
84
78
ENDCHAR
STARTCHAR Gcaron
ENCODING 486
SWIDTH 709 0
DWIDTH 9 0
BBX 8 12 0 0
BITMAP
14
08
00
1E
62
40
C0
80
87
82
46
3C
ENDCHAR
STARTCHAR gcaron
ENCODING 487
SWIDTH 499 0
DWIDTH 6 0
BBX 7 12 -1 -3
BITMAP
14
08
00
1E
24
4C
58
20
38
4C
84
78
ENDCHAR
STARTCHAR uni01E8
ENCODING 488
SWIDTH 650 0
DWIDTH 8 0
BBX 8 12 0 0
BITMAP
14
08
00
77
22
24
28
50
48
48
44
E6
ENDCHAR
STARTCHAR uni01E9
ENCODING 489
SWIDTH 545 0
DWIDTH 7 0
BBX 6 13 0 0
BITMAP
50
20
00
60
20
20
44
4C
50
60
90
94
98
ENDCHAR
STARTCHAR uni01EA
ENCODING 490
SWIDTH 753 0
DWIDTH 9 0
BBX 8 12 0 -3
BITMAP
1C
62
41
C1
81
83
82
46
38
08
10
18
ENDCHAR
STARTCHAR uni01EB
ENCODING 491
SWIDTH 537 0
DWIDTH 7 0
BBX 6 9 0 -3
BITMAP
38
44
C4
8C
88
70
20
40
60
ENDCHAR
STARTCHAR uni01EC
ENCODING 492
SWIDTH 753 0
DWIDTH 9 0
BBX 8 14 0 -3
BITMAP
3C
00
1C
62
41
C1
81
83
82
46
38
08
10
18
ENDCHAR
STARTCHAR uni01ED
ENCODING 493
SWIDTH 537 0
DWIDTH 7 0
BBX 6 11 0 -3
BITMAP
78
00
38
44
C4
8C
88
70
20
40
60
ENDCHAR
STARTCHAR uni01F0
ENCODING 496
SWIDTH 309 0
DWIDTH 3 0
BBX 4 12 -2 -3
BITMAP
50
20
00
30
10
10
20
20
20
20
A0
C0
ENDCHAR
STARTCHAR uni01F4
ENCODING 500
SWIDTH 709 0
DWIDTH 9 0
BBX 8 12 0 0
BITMAP
08
10
00
1E
62
40
C0
80
87
82
46
3C
ENDCHAR
STARTCHAR uni01F5
ENCODING 501
SWIDTH 499 0
DWIDTH 6 0
BBX 7 12 -1 -3
BITMAP
08
10
00
1E
24
4C
58
20
38
4C
84
78
ENDCHAR
STARTCHAR uni01F8
ENCODING 504
SWIDTH 763 0
DWIDTH 10 0
BBX 9 12 0 0
BITMAP
1000
0800
0000
6380
3100
3100
2900
4900
4600
4600
4200
E200
ENDCHAR
STARTCHAR uni01F9
ENCODING 505
SWIDTH 618 0
DWIDTH 8 0
BBX 7 9 0 0
BITMAP
20
10
00
CC
54
64
C8
8A
8C
ENDCHAR
STARTCHAR Aringacute
ENCODING 506
SWIDTH 624 0
DWIDTH 8 0
BBX 8 13 -1 0
BITMAP
04
08
00
04
0A
04
04
0C
14
12
3E
42
E7
ENDCHAR
STARTCHAR aringacute
ENCODING 507
SWIDTH 561 0
DWIDTH 7 0
BBX 6 13 0 0
BITMAP
08
10
00
08
14
08
00
3C
44
CC
88
98
EC
ENDCHAR
STARTCHAR AEacute
ENCODING 508
SWIDTH 880 0
DWIDTH 11 0
BBX 11 12 -1 0
BITMAP
0100
0200
0000
1FE0
0A20
0A00
1240
1FC0
2440
2400
4440
EFC0
ENDCHAR
STARTCHAR aeacute
ENCODING 509
SWIDTH 779 0
DWIDTH 10 0
BBX 9 10 0 0
BITMAP
0200
0400
0000
0200
3F80
4480
C900
8E00
9800
E700
ENDCHAR
STARTCHAR Oslashacute
ENCODING 510
SWIDTH 753 0
DWIDTH 9 0
BBX 8 12 0 0
BITMAP
04
08
00
1D
62
45
C9
91
93
A2
46
B8
ENDCHAR
STARTCHAR oslashacute
ENCODING 511
SWIDTH 537 0
DWIDTH 7 0
BBX 6 11 0 -1
BITMAP
08
10
00
04
38
4C
D4
AC
C8
70
80
ENDCHAR
STARTCHAR Scommaaccent
ENCODING 536
SWIDTH 533 0
DWIDTH 7 0
BBX 6 13 0 -4
BITMAP
3C
44
40
60
30
18
08
88
F0
00
20
20
40
ENDCHAR
STARTCHAR scommaaccent
ENCODING 537
SWIDTH 389 0
DWIDTH 6 0
BBX 5 10 0 -4
BITMAP
38
48
60
30
90
E0
00
20
20
40
ENDCHAR
STARTCHAR Tcommaaccent
ENCODING 538
SWIDTH 606 0
DWIDTH 7 0
BBX 7 13 0 -4
BITMAP
FE
92
10
10
20
20
20
20
70
00
10
10
20
ENDCHAR
STARTCHAR tcommaaccent
ENCODING 539
SWIDTH 341 0
DWIDTH 4 0
BBX 4 12 0 -4
BITMAP
40
40
F0
40
C0
80
A0
C0
00
40
40
80
ENDCHAR
STARTCHAR uni021E
ENCODING 542
SWIDTH 775 0
DWIDTH 10 0
BBX 9 12 0 0
BITMAP
1400
0800
0000
7380
2100
2100
2100
3E00
4200
4200
4200
E700
ENDCHAR
STARTCHAR uni021F
ENCODING 543
SWIDTH 607 0
DWIDTH 8 0
BBX 7 13 0 0
BITMAP
50
20
00
60
20
20
40
4C
54
64
C8
8A
8C
ENDCHAR
STARTCHAR uni0226
ENCODING 550
SWIDTH 624 0
DWIDTH 8 0
BBX 8 11 -1 0
BITMAP
08
00
04
0C
0C
14
12
3E
22
42
E7
ENDCHAR
STARTCHAR uni0227
ENCODING 551
SWIDTH 561 0
DWIDTH 7 0
BBX 6 8 0 0
BITMAP
10
00
3C
44
CC
88
98
EC
ENDCHAR
STARTCHAR uni0228
ENCODING 552
SWIDTH 596 0
DWIDTH 8 0
BBX 7 12 0 -3
BITMAP
7E
22
20
24
3C
44
40
44
FC
10
08
30
ENDCHAR
STARTCHAR uni0229
ENCODING 553
SWIDTH 453 0
DWIDTH 6 0
BBX 5 9 0 -3
BITMAP
38
48
90
E0
80
70
20
10
60
ENDCHAR
STARTCHAR uni022A
ENCODING 554
SWIDTH 753 0
DWIDTH 9 0
BBX 8 11 0 0
BITMAP
1E
00
0A
00
1E
63
C1
81
83
C6
78
ENDCHAR
STARTCHAR uni022B
ENCODING 555
SWIDTH 537 0
DWIDTH 7 0
BBX 6 10 0 0
BITMAP
78
00
28
00
38
44
C4
8C
88
70
ENDCHAR
STARTCHAR uni022C
ENCODING 556
SWIDTH 753 0
DWIDTH 9 0
BBX 8 12 0 0
BITMAP
3C
00
1A
2C
00
1E
63
C1
81
83
C6
78
ENDCHAR
STARTCHAR uni022D
ENCODING 557
SWIDTH 537 0
DWIDTH 7 0
BBX 6 11 0 0
BITMAP
78
00
34
58
00
38
44
C4
8C
88
70
ENDCHAR
STARTCHAR uni022E
ENCODING 558
SWIDTH 753 0
DWIDTH 9 0
BBX 8 11 0 0
BITMAP
08
00
1C
62
41
C1
81
83
82
46
38
ENDCHAR
STARTCHAR uni022F
ENCODING 559
SWIDTH 537 0
DWIDTH 7 0
BBX 6 8 0 0
BITMAP
10
00
38
44
C4
8C
88
70
ENDCHAR
STARTCHAR uni0230
ENCODING 560
SWIDTH 753 0
DWIDTH 9 0
BBX 8 13 0 0
BITMAP
3C
00
08
00
1C
62
41
C1
81
83
82
46
38
ENDCHAR
STARTCHAR uni0231
ENCODING 561
SWIDTH 537 0
DWIDTH 7 0
BBX 6 10 0 0
BITMAP
78
00
10
00
38
44
C4
8C
88
70
ENDCHAR
STARTCHAR uni0232
ENCODING 562
SWIDTH 591 0
DWIDTH 7 0
BBX 7 11 0 0
BITMAP
78
00
EE
44
48
50
20
20
40
40
E0
ENDCHAR
STARTCHAR uni0233
ENCODING 563
SWIDTH 468 0
DWIDTH 6 0
BBX 7 11 -2 -3
BITMAP
3C
00
32
12
14
14
18
10
10
A0
C0
ENDCHAR
STARTCHAR uni0250
ENCODING 592
SWIDTH 561 0
DWIDTH 7 0
BBX 6 6 0 0
BITMAP
DC
64
44
CC
88
F0
ENDCHAR
STARTCHAR uni0259
ENCODING 601
SWIDTH 453 0
DWIDTH 6 0
BBX 5 6 0 0
BITMAP
70
08
38
48
90
E0
ENDCHAR
STARTCHAR uni025F
ENCODING 607
SWIDTH 315 0
DWIDTH 4 0
BBX 7 13 -2 -7
BITMAP
06
0A
08
08
08
10
10
10
78
20
20
A0
C0
ENDCHAR
STARTCHAR uni0265
ENCODING 613
SWIDTH 607 0
DWIDTH 8 0
BBX 7 10 0 -4
BITMAP
62
A2
26
4C
54
64
04
08
08
0C
ENDCHAR
STARTCHAR uni0275
ENCODING 629
SWIDTH 537 0
DWIDTH 7 0
BBX 6 6 0 0
BITMAP
38
44
FC
8C
88
70
ENDCHAR
STARTCHAR uni0279
ENCODING 633
SWIDTH 402 0
DWIDTH 5 0
BBX 5 6 0 0
BITMAP
08
08
18
10
B0
D8
ENDCHAR
STARTCHAR uni0287
ENCODING 647
SWIDTH 341 0
DWIDTH 4 0
BBX 4 8 0 0
BITMAP
30
50
10
30
20
F0
20
20
ENDCHAR
STARTCHAR uni0289
ENCODING 649
SWIDTH 618 0
DWIDTH 8 0
BBX 7 6 0 0
BITMAP
C4
44
FE
98
AA
CC
ENDCHAR
STARTCHAR uni028C
ENCODING 652
SWIDTH 510 0
DWIDTH 6 0
BBX 5 6 0 0
BITMAP
30
48
88
98
90
98
ENDCHAR
STARTCHAR uni028D
ENCODING 653
SWIDTH 785 0
DWIDTH 10 0
BBX 8 6 1 0
BITMAP
36
49
89
9B
92
93
ENDCHAR
STARTCHAR uni028E
ENCODING 654
SWIDTH 468 0
DWIDTH 6 0
BBX 7 9 -2 0
BITMAP
06
0A
10
10
30
50
50
90
98
ENDCHAR
STARTCHAR uni029E
ENCODING 670
SWIDTH 545 0
DWIDTH 7 0
BBX 6 10 0 -4
BITMAP
64
A4
24
18
28
C8
88
10
10
18
ENDCHAR
STARTCHAR uni02BB
ENCODING 699
SWIDTH 216 0
DWIDTH 3 0
BBX 2 3 1 6
BITMAP
40
80
80
ENDCHAR
STARTCHAR afii57929
ENCODING 700
SWIDTH 216 0
DWIDTH 3 0
BBX 2 3 0 6
BITMAP
40
40
80
ENDCHAR
STARTCHAR afii64937
ENCODING 701
SWIDTH 216 0
DWIDTH 3 0
BBX 2 3 0 6
BITMAP
80
80
40
ENDCHAR
STARTCHAR circumflex
ENCODING 710
SWIDTH 400 0
DWIDTH 5 0
BBX 3 2 1 7
BITMAP
40
A0
ENDCHAR
STARTCHAR caron
ENCODING 711
SWIDTH 400 0
DWIDTH 5 0
BBX 3 2 1 7
BITMAP
A0
40
ENDCHAR
STARTCHAR uni02C8
ENCODING 712
SWIDTH 216 0
DWIDTH 4 0
BBX 1 3 2 6
BITMAP
80
80
80
ENDCHAR
STARTCHAR macron
ENCODING 713
SWIDTH 400 0
DWIDTH 5 0
BBX 4 1 0 7
BITMAP
F0
ENDCHAR
STARTCHAR uni02CA
ENCODING 714
SWIDTH 400 0
DWIDTH 5 0
BBX 2 2 1 7
BITMAP
40
80
ENDCHAR
STARTCHAR uni02CB
ENCODING 715
SWIDTH 400 0
DWIDTH 5 0
BBX 2 2 1 7
BITMAP
80
40
ENDCHAR
STARTCHAR uni02CD
ENCODING 717
SWIDTH 400 0
DWIDTH 5 0
BBX 4 1 0 -2
BITMAP
F0
ENDCHAR
STARTCHAR uni02CE
ENCODING 718
SWIDTH 400 0
DWIDTH 5 0
BBX 2 2 1 -3
BITMAP
80
40
ENDCHAR
STARTCHAR uni02CF
ENCODING 719
SWIDTH 400 0
DWIDTH 5 0
BBX 2 2 1 -3
BITMAP
40
80
ENDCHAR
STARTCHAR breve
ENCODING 728
SWIDTH 400 0
DWIDTH 5 0
BBX 4 2 0 7
BITMAP
90
60
ENDCHAR
STARTCHAR dotaccent
ENCODING 729
SWIDTH 402 0
DWIDTH 5 0
BBX 1 1 1 7
BITMAP
80
ENDCHAR
STARTCHAR ring
ENCODING 730
SWIDTH 400 0
DWIDTH 5 0
BBX 3 3 1 7
BITMAP
40
A0
40
ENDCHAR
STARTCHAR ogonek
ENCODING 731
SWIDTH 350 0
DWIDTH 4 0
BBX 2 3 0 -3
BITMAP
40
80
C0
ENDCHAR
STARTCHAR tilde
ENCODING 732
SWIDTH 400 0
DWIDTH 5 0
BBX 5 2 0 7
BITMAP
68
B0
ENDCHAR
STARTCHAR hungarumlaut
ENCODING 733
SWIDTH 400 0
DWIDTH 5 0
BBX 4 2 0 7
BITMAP
50
A0
ENDCHAR
STARTCHAR uni02EE
ENCODING 750
SWIDTH 402 0
DWIDTH 5 0
BBX 4 3 0 6
BITMAP
50
50
A0
ENDCHAR
STARTCHAR uni037E
ENCODING 894
SWIDTH 265 0
DWIDTH 3 0
BBX 3 8 -1 -2
BITMAP
20
00
00
00
00
40
40
80
ENDCHAR
STARTCHAR tonos
ENCODING 900
SWIDTH 400 0
DWIDTH 5 0
BBX 2 2 1 7
BITMAP
40
80
ENDCHAR
STARTCHAR dieresistonos
ENCODING 901
SWIDTH 400 0
DWIDTH 5 0
BBX 3 4 0 7
BITMAP
20
40
00
A0
ENDCHAR
STARTCHAR anoteleia
ENCODING 903
SWIDTH 265 0
DWIDTH 3 0
BBX 1 1 1 3
BITMAP
80
ENDCHAR
STARTCHAR mu
ENCODING 956
SWIDTH 618 0
DWIDTH 8 0
BBX 7 9 0 -3
BITMAP
C4
44
4C
98
AA
CC
80
80
80
ENDCHAR
STARTCHAR uni1E00
ENCODING 7680
SWIDTH 624 0
DWIDTH 8 0
BBX 8 13 -1 -4
BITMAP
04
0C
0C
14
12
3E
22
42
E7
00
08
14
08
ENDCHAR
STARTCHAR uni1E01
ENCODING 7681
SWIDTH 561 0
DWIDTH 7 0
BBX 6 10 0 -4
BITMAP
3C
44
CC
88
98
EC
00
20
50
20
ENDCHAR
STARTCHAR uni1E02
ENCODING 7682
SWIDTH 632 0
DWIDTH 8 0
BBX 7 11 0 0
BITMAP
10
00
7C
22
22
26
3C
42
42
46
FC
ENDCHAR
STARTCHAR uni1E03
ENCODING 7683
SWIDTH 559 0
DWIDTH 7 0
BBX 6 12 0 0
BITMAP
20
00
60
20
20
40
58
64
44
CC
88
F0
ENDCHAR
STARTCHAR uni1E04
ENCODING 7684
SWIDTH 632 0
DWIDTH 8 0
BBX 7 11 0 -2
BITMAP
7C
22
22
26
3C
42
42
46
FC
00
10
ENDCHAR
STARTCHAR uni1E05
ENCODING 7685
SWIDTH 559 0
DWIDTH 7 0
BBX 6 12 0 -2
BITMAP
60
20
20
40
58
64
44
CC
88
F0
00
20
ENDCHAR
STARTCHAR uni1E06
ENCODING 7686
SWIDTH 632 0
DWIDTH 8 0
BBX 7 11 0 -2
BITMAP
7C
22
22
26
3C
42
42
46
FC
00
3C
ENDCHAR
STARTCHAR uni1E07
ENCODING 7687
SWIDTH 559 0
DWIDTH 7 0
BBX 6 12 0 -2
BITMAP
60
20
20
40
58
64
44
CC
88
F0
00
78
ENDCHAR
STARTCHAR uni1E08
ENCODING 7688
SWIDTH 661 0
DWIDTH 8 0
BBX 7 15 0 -3
BITMAP
08
10
00
1E
62
40
C0
80
80
82
46
38
10
08
30
ENDCHAR
STARTCHAR uni1E09
ENCODING 7689
SWIDTH 441 0
DWIDTH 6 0
BBX 6 12 0 -3
BITMAP
10
20
00
38
4C
C0
80
88
70
20
10
60
ENDCHAR
STARTCHAR uni1E0A
ENCODING 7690
SWIDTH 763 0
DWIDTH 9 0
BBX 8 11 0 0
BITMAP
08
00
7C
22
21
21
41
43
42
46
F8
ENDCHAR
STARTCHAR uni1E0B
ENCODING 7691
SWIDTH 587 0
DWIDTH 7 0
BBX 7 12 0 0
BITMAP
04
00
06
02
02
04
3C
44
CC
88
98
EC
ENDCHAR
STARTCHAR uni1E0C
ENCODING 7692
SWIDTH 763 0
DWIDTH 9 0
BBX 8 11 0 -2
BITMAP
7C
22
21
21
41
43
42
46
F8
00
10
ENDCHAR
STARTCHAR uni1E0D
ENCODING 7693
SWIDTH 587 0
DWIDTH 7 0
BBX 7 12 0 -2
BITMAP
06
02
02
04
3C
44
CC
88
98
EC
00
10
ENDCHAR
STARTCHAR uni1E0E
ENCODING 7694
SWIDTH 763 0
DWIDTH 9 0
BBX 8 11 0 -2
BITMAP
7C
22
21
21
41
43
42
46
F8
00
3C
ENDCHAR
STARTCHAR uni1E0F
ENCODING 7695
SWIDTH 587 0
DWIDTH 7 0
BBX 7 12 0 -2
BITMAP
06
02
02
04
3C
44
CC
88
98
EC
00
78
ENDCHAR
STARTCHAR uni1E10
ENCODING 7696
SWIDTH 763 0
DWIDTH 9 0
BBX 8 12 0 -3
BITMAP
7C
22
21
21
41
43
42
46
F8
10
08
30
ENDCHAR
STARTCHAR uni1E11
ENCODING 7697
SWIDTH 587 0
DWIDTH 7 0
BBX 7 13 0 -3
BITMAP
06
02
02
04
3C
44
CC
88
98
EC
10
08
30
ENDCHAR
STARTCHAR uni1E12
ENCODING 7698
SWIDTH 763 0
DWIDTH 9 0
BBX 8 12 0 -3
BITMAP
7C
22
21
21
41
43
42
46
F8
00
10
28
ENDCHAR
STARTCHAR uni1E13
ENCODING 7699
SWIDTH 587 0
DWIDTH 7 0
BBX 7 13 0 -3
BITMAP
06
02
02
04
3C
44
CC
88
98
EC
00
10
28
ENDCHAR
STARTCHAR uni1E14
ENCODING 7700
SWIDTH 596 0
DWIDTH 8 0
BBX 7 14 0 0
BITMAP
10
08
00
3C
00
7E
22
20
24
3C
44
40
44
FC
ENDCHAR
STARTCHAR uni1E15
ENCODING 7701
SWIDTH 453 0
DWIDTH 6 0
BBX 5 11 0 0
BITMAP
20
10
00
78
00
38
48
90
E0
80
70
ENDCHAR
STARTCHAR uni1E16
ENCODING 7702
SWIDTH 596 0
DWIDTH 8 0
BBX 7 14 0 0
BITMAP
08
10
00
3C
00
7E
22
20
24
3C
44
40
44
FC
ENDCHAR
STARTCHAR uni1E17
ENCODING 7703
SWIDTH 453 0
DWIDTH 6 0
BBX 5 11 0 0
BITMAP
10
20
00
78
00
38
48
90
E0
80
70
ENDCHAR
STARTCHAR uni1E18
ENCODING 7704
SWIDTH 596 0
DWIDTH 8 0
BBX 7 12 0 -3
BITMAP
7E
22
20
24
3C
44
40
44
FC
00
10
28
ENDCHAR
STARTCHAR uni1E19
ENCODING 7705
SWIDTH 453 0
DWIDTH 6 0
BBX 5 9 0 -3
BITMAP
38
48
90
E0
80
70
00
20
50
ENDCHAR
STARTCHAR uni1E1A
ENCODING 7706
SWIDTH 596 0
DWIDTH 8 0
BBX 7 12 0 -3
BITMAP
7E
22
20
24
3C
44
40
44
FC
00
68
B0
ENDCHAR
STARTCHAR uni1E1B
ENCODING 7707
SWIDTH 453 0
DWIDTH 6 0
BBX 6 9 -1 -3
BITMAP
1C
24
48
70
40
38
00
68
B0
ENDCHAR
STARTCHAR uni1E1C
ENCODING 7708
SWIDTH 596 0
DWIDTH 8 0
BBX 7 15 0 -3
BITMAP
24
18
00
7E
22
20
24
3C
44
40
44
FC
10
08
30
ENDCHAR
STARTCHAR uni1E1D
ENCODING 7709
SWIDTH 453 0
DWIDTH 6 0
BBX 5 12 0 -3
BITMAP
48
30
00
38
48
90
E0
80
70
20
10
60
ENDCHAR
STARTCHAR uni1E1E
ENCODING 7710
SWIDTH 571 0
DWIDTH 8 0
BBX 7 11 0 0
BITMAP
10
00
7E
22
20
24
7C
44
40
40
E0
ENDCHAR
STARTCHAR uni1E1F
ENCODING 7711
SWIDTH 315 0
DWIDTH 4 0
BBX 7 15 -2 -3
BITMAP
08
00
06
0A
08
08
3C
10
10
10
20
20
20
A0
C0
ENDCHAR
STARTCHAR uni1E20
ENCODING 7712
SWIDTH 709 0
DWIDTH 9 0
BBX 8 11 0 0
BITMAP
3C
00
1E
62
40
C0
80
87
82
46
3C
ENDCHAR
STARTCHAR uni1E21
ENCODING 7713
SWIDTH 499 0
DWIDTH 6 0
BBX 7 11 -1 -3
BITMAP
3C
00
1E
24
4C
58
20
38
4C
84
78
ENDCHAR
STARTCHAR uni1E22
ENCODING 7714
SWIDTH 775 0
DWIDTH 10 0
BBX 9 11 0 0
BITMAP
0800
0000
7380
2100
2100
2100
3E00
4200
4200
4200
E700
ENDCHAR
STARTCHAR uni1E23
ENCODING 7715
SWIDTH 607 0
DWIDTH 8 0
BBX 7 12 0 0
BITMAP
20
00
60
20
20
40
4C
54
64
C8
8A
8C
ENDCHAR
STARTCHAR uni1E24
ENCODING 7716
SWIDTH 775 0
DWIDTH 10 0
BBX 9 11 0 -2
BITMAP
7380
2100
2100
2100
3E00
4200
4200
4200
E700
0000
0800
ENDCHAR
STARTCHAR uni1E25
ENCODING 7717
SWIDTH 607 0
DWIDTH 8 0
BBX 7 12 0 -2
BITMAP
60
20
20
40
4C
54
64
C8
8A
8C
00
10
ENDCHAR
STARTCHAR uni1E26
ENCODING 7718
SWIDTH 775 0
DWIDTH 10 0
BBX 9 11 0 0
BITMAP
1400
0000
7380
2100
2100
2100
3E00
4200
4200
4200
E700
ENDCHAR
STARTCHAR uni1E27
ENCODING 7719
SWIDTH 607 0
DWIDTH 8 0
BBX 7 12 0 0
BITMAP
50
00
60
20
20
40
4C
54
64
C8
8A
8C
ENDCHAR
STARTCHAR uni1E28
ENCODING 7720
SWIDTH 775 0
DWIDTH 10 0
BBX 9 12 0 -3
BITMAP
7380
2100
2100
2100
3E00
4200
4200
4200
E700
0800
0400
1800
ENDCHAR
STARTCHAR uni1E29
ENCODING 7721
SWIDTH 607 0
DWIDTH 8 0
BBX 7 13 0 -3
BITMAP
60
20
20
40
4C
54
64
C8
8A
8C
10
08
30
ENDCHAR
STARTCHAR uni1E2A
ENCODING 7722
SWIDTH 775 0
DWIDTH 10 0
BBX 9 12 0 -3
BITMAP
7380
2100
2100
2100
3E00
4200
4200
4200
E700
0000
2400
1800
ENDCHAR
STARTCHAR uni1E2B
ENCODING 7723
SWIDTH 607 0
DWIDTH 8 0
BBX 7 13 0 -3
BITMAP
60
20
20
40
4C
54
64
C8
8A
8C
00
48
30
ENDCHAR
STARTCHAR uni1E2C
ENCODING 7724
SWIDTH 345 0
DWIDTH 4 0
BBX 5 12 -1 -3
BITMAP
38
10
10
10
20
20
20
20
70
00
68
B0
ENDCHAR
STARTCHAR uni1E2D
ENCODING 7725
SWIDTH 317 0
DWIDTH 4 0
BBX 5 11 -1 -3
BITMAP
20
00
60
20
20
40
50
60
00
68
B0
ENDCHAR
STARTCHAR uni1E2E
ENCODING 7726
SWIDTH 345 0
DWIDTH 4 0
BBX 4 12 0 0
BITMAP
10
20
00
50
00
70
20
20
40
40
40
E0
ENDCHAR
STARTCHAR uni1E2F
ENCODING 7727
SWIDTH 317 0
DWIDTH 4 0
BBX 3 11 0 0
BITMAP
20
40
00
A0
00
C0
40
40
80
A0
C0
ENDCHAR
STARTCHAR uni1E30
ENCODING 7728
SWIDTH 650 0
DWIDTH 8 0
BBX 8 12 0 0
BITMAP
04
08
00
77
22
24
28
50
48
48
44
E6
ENDCHAR
STARTCHAR uni1E31
ENCODING 7729
SWIDTH 545 0
DWIDTH 7 0
BBX 6 13 0 0
BITMAP
10
20
00
60
20
20
44
4C
50
60
90
94
98
ENDCHAR
STARTCHAR uni1E32
ENCODING 7730
SWIDTH 650 0
DWIDTH 8 0
BBX 8 11 0 -2
BITMAP
77
22
24
28
50
48
48
44
E6
00
10
ENDCHAR
STARTCHAR uni1E33
ENCODING 7731
SWIDTH 545 0
DWIDTH 7 0
BBX 6 12 0 -2
BITMAP
60
20
20
44
4C
50
60
90
94
98
00
20
ENDCHAR
STARTCHAR uni1E34
ENCODING 7732
SWIDTH 650 0
DWIDTH 8 0
BBX 8 11 0 -2
BITMAP
77
22
24
28
50
48
48
44
E6
00
3C
ENDCHAR
STARTCHAR uni1E35
ENCODING 7733
SWIDTH 545 0
DWIDTH 7 0
BBX 6 12 0 -2
BITMAP
60
20
20
44
4C
50
60
90
94
98
00
78
ENDCHAR
STARTCHAR uni1E36
ENCODING 7734
SWIDTH 565 0
DWIDTH 7 0
BBX 6 11 0 -2
BITMAP
70
20
20
20
40
40
40
44
FC
00
20
ENDCHAR
STARTCHAR uni1E37
ENCODING 7735
SWIDTH 306 0
DWIDTH 4 0
BBX 3 12 0 -2
BITMAP
60
20
20
40
40
40
40
80
A0
C0
00
40
ENDCHAR
STARTCHAR uni1E38
ENCODING 7736
SWIDTH 565 0
DWIDTH 7 0
BBX 6 13 0 -2
BITMAP
78
00
70
20
20
20
40
40
40
44
FC
00
20
ENDCHAR
STARTCHAR uni1E39
ENCODING 7737
SWIDTH 306 0
DWIDTH 4 0
BBX 4 14 0 -2
BITMAP
F0
00
60
20
20
40
40
40
40
80
A0
C0
00
40
ENDCHAR
STARTCHAR uni1E3A
ENCODING 7738
SWIDTH 565 0
DWIDTH 7 0
BBX 6 11 0 -2
BITMAP
70
20
20
20
40
40
40
44
FC
00
78
ENDCHAR
STARTCHAR uni1E3B
ENCODING 7739
SWIDTH 306 0
DWIDTH 4 0
BBX 4 12 -1 -2
BITMAP
30
10
10
20
20
20
20
40
50
60
00
F0
ENDCHAR
STARTCHAR uni1E3C
ENCODING 7740
SWIDTH 565 0
DWIDTH 7 0
BBX 6 12 0 -3
BITMAP
70
20
20
20
40
40
40
44
FC
00
20
50
ENDCHAR
STARTCHAR uni1E3D
ENCODING 7741
SWIDTH 306 0
DWIDTH 4 0
BBX 3 13 0 -3
BITMAP
60
20
20
40
40
40
40
80
A0
C0
00
40
A0
ENDCHAR
STARTCHAR uni1E3E
ENCODING 7742
SWIDTH 920 0
DWIDTH 12 0
BBX 11 12 0 0
BITMAP
0200
0400
0000
60E0
20C0
3140
3240
52C0
5C80
4880
4880
E1C0
ENDCHAR
STARTCHAR uni1E3F
ENCODING 7743
SWIDTH 912 0
DWIDTH 12 0
BBX 11 9 0 0
BITMAP
0200
0400
0000
CCC0
5540
6640
CC80
88A0
88C0
ENDCHAR
STARTCHAR uni1E40
ENCODING 7744
SWIDTH 920 0
DWIDTH 12 0
BBX 11 11 0 0
BITMAP
0200
0000
60E0
20C0
3140
3240
52C0
5C80
4880
4880
E1C0
ENDCHAR
STARTCHAR uni1E41
ENCODING 7745
SWIDTH 912 0
DWIDTH 12 0
BBX 11 8 0 0
BITMAP
0400
0000
CCC0
5540
6640
CC80
88A0
88C0
ENDCHAR
STARTCHAR uni1E42
ENCODING 7746
SWIDTH 920 0
DWIDTH 12 0
BBX 11 11 0 -2
BITMAP
60E0
20C0
3140
3240
52C0
5C80
4880
4880
E1C0
0000
0400
ENDCHAR
STARTCHAR uni1E43
ENCODING 7747
SWIDTH 912 0
DWIDTH 12 0
BBX 11 8 0 -2
BITMAP
CCC0
5540
6640
CC80
88A0
88C0
0000
0400
ENDCHAR
STARTCHAR uni1E44
ENCODING 7748
SWIDTH 763 0
DWIDTH 10 0
BBX 9 11 0 0
BITMAP
0800
0000
6380
3100
3100
2900
4900
4600
4600
4200
E200
ENDCHAR
STARTCHAR uni1E45
ENCODING 7749
SWIDTH 618 0
DWIDTH 8 0
BBX 7 8 0 0
BITMAP
10
00
CC
54
64
C8
8A
8C
ENDCHAR
STARTCHAR uni1E46
ENCODING 7750
SWIDTH 763 0
DWIDTH 10 0
BBX 9 11 0 -2
BITMAP
6380
3100
3100
2900
4900
4600
4600
4200
E200
0000
1000
ENDCHAR
STARTCHAR uni1E47
ENCODING 7751
SWIDTH 618 0
DWIDTH 8 0
BBX 7 8 0 -2
BITMAP
CC
54
64
C8
8A
8C
00
10
ENDCHAR
STARTCHAR uni1E48
ENCODING 7752
SWIDTH 763 0
DWIDTH 10 0
BBX 9 11 0 -2
BITMAP
6380
3100
3100
2900
4900
4600
4600
4200
E200
0000
3C00
ENDCHAR
STARTCHAR uni1E49
ENCODING 7753
SWIDTH 618 0
DWIDTH 8 0
BBX 7 8 0 -2
BITMAP
CC
54
64
C8
8A
8C
00
3C
ENDCHAR
STARTCHAR uni1E4A
ENCODING 7754
SWIDTH 763 0
DWIDTH 10 0
BBX 9 12 0 -3
BITMAP
6380
3100
3100
2900
4900
4600
4600
4200
E200
0000
1000
2800
ENDCHAR
STARTCHAR uni1E4B
ENCODING 7755
SWIDTH 618 0
DWIDTH 8 0
BBX 7 9 0 -3
BITMAP
CC
54
64
C8
8A
8C
00
10
28
ENDCHAR
STARTCHAR uni1E4C
ENCODING 7756
SWIDTH 753 0
DWIDTH 9 0
BBX 8 13 0 0
BITMAP
04
08
00
1A
2C
00
1E
63
C1
81
83
C6
78
ENDCHAR
STARTCHAR uni1E4D
ENCODING 7757
SWIDTH 537 0
DWIDTH 7 0
BBX 6 12 0 0
BITMAP
08
10
00
34
58
00
38
44
C4
8C
88
70
ENDCHAR
STARTCHAR uni1E4E
ENCODING 7758
SWIDTH 753 0
DWIDTH 9 0
BBX 8 12 0 0
BITMAP
14
00
1A
2C
00
1E
63
C1
81
83
C6
78
ENDCHAR
STARTCHAR uni1E4F
ENCODING 7759
SWIDTH 537 0
DWIDTH 7 0
BBX 6 11 0 0
BITMAP
28
00
34
58
00
38
44
C4
8C
88
70
ENDCHAR
STARTCHAR uni1E50
ENCODING 7760
SWIDTH 753 0
DWIDTH 9 0
BBX 8 14 0 0
BITMAP
10
08
00
3C
00
1C
62
41
C1
81
83
82
46
38
ENDCHAR
STARTCHAR uni1E51
ENCODING 7761
SWIDTH 537 0
DWIDTH 7 0
BBX 6 11 0 0
BITMAP
20
10
00
78
00
38
44
C4
8C
88
70
ENDCHAR
STARTCHAR uni1E52
ENCODING 7762
SWIDTH 753 0
DWIDTH 9 0
BBX 8 14 0 0
BITMAP
08
10
00
3C
00
1C
62
41
C1
81
83
82
46
38
ENDCHAR
STARTCHAR uni1E53
ENCODING 7763
SWIDTH 537 0
DWIDTH 7 0
BBX 6 11 0 0
BITMAP
10
20
00
78
00
38
44
C4
8C
88
70
ENDCHAR
STARTCHAR uni1E54
ENCODING 7764
SWIDTH 614 0
DWIDTH 8 0
BBX 7 12 0 0
BITMAP
08
10
00
7C
22
22
22
46
7C
40
40
E0
ENDCHAR
STARTCHAR uni1E55
ENCODING 7765
SWIDTH 590 0
DWIDTH 7 0
BBX 7 12 -1 -3
BITMAP
08
10
00
6C
32
22
66
44
78
80
80
80
ENDCHAR
STARTCHAR uni1E56
ENCODING 7766
SWIDTH 614 0
DWIDTH 8 0
BBX 7 11 0 0
BITMAP
10
00
7C
22
22
22
46
7C
40
40
E0
ENDCHAR
STARTCHAR uni1E57
ENCODING 7767
SWIDTH 590 0
DWIDTH 7 0
BBX 7 11 -1 -3
BITMAP
10
00
6C
32
22
66
44
78
80
80
80
ENDCHAR
STARTCHAR uni1E58
ENCODING 7768
SWIDTH 640 0
DWIDTH 8 0
BBX 7 11 0 0
BITMAP
10
00
7C
22
22
26
3C
48
44
44
E6
ENDCHAR
STARTCHAR uni1E59
ENCODING 7769
SWIDTH 402 0
DWIDTH 5 0
BBX 5 8 0 0
BITMAP
20
00
D8
68
40
C0
80
80
ENDCHAR
STARTCHAR uni1E5A
ENCODING 7770
SWIDTH 640 0
DWIDTH 8 0
BBX 7 11 0 -2
BITMAP
7C
22
22
26
3C
48
44
44
E6
00
10
ENDCHAR
STARTCHAR uni1E5B
ENCODING 7771
SWIDTH 402 0
DWIDTH 5 0
BBX 5 8 0 -2
BITMAP
D8
68
40
C0
80
80
00
40
ENDCHAR
STARTCHAR uni1E5C
ENCODING 7772
SWIDTH 640 0
DWIDTH 8 0
BBX 7 13 0 -2
BITMAP
3C
00
7C
22
22
26
3C
48
44
44
E6
00
10
ENDCHAR
STARTCHAR uni1E5D
ENCODING 7773
SWIDTH 402 0
DWIDTH 5 0
BBX 5 10 0 -2
BITMAP
78
00
D8
68
40
C0
80
80
00
40
ENDCHAR
STARTCHAR uni1E5E
ENCODING 7774
SWIDTH 640 0
DWIDTH 8 0
BBX 7 11 0 -2
BITMAP
7C
22
22
26
3C
48
44
44
E6
00
78
ENDCHAR
STARTCHAR uni1E5F
ENCODING 7775
SWIDTH 402 0
DWIDTH 5 0
BBX 6 8 -1 -2
BITMAP
6C
34
20
60
40
40
00
F0
ENDCHAR
STARTCHAR uni1E60
ENCODING 7776
SWIDTH 533 0
DWIDTH 7 0
BBX 6 11 0 0
BITMAP
10
00
3C
44
40
60
30
18
08
88
F0
ENDCHAR
STARTCHAR uni1E61
ENCODING 7777
SWIDTH 389 0
DWIDTH 6 0
BBX 5 8 0 0
BITMAP
10
00
38
48
60
30
90
E0
ENDCHAR
STARTCHAR uni1E62
ENCODING 7778
SWIDTH 533 0
DWIDTH 7 0
BBX 6 11 0 -2
BITMAP
3C
44
40
60
30
18
08
88
F0
00
20
ENDCHAR
STARTCHAR uni1E63
ENCODING 7779
SWIDTH 389 0
DWIDTH 6 0
BBX 5 8 0 -2
BITMAP
38
48
60
30
90
E0
00
40
ENDCHAR
STARTCHAR uni1E64
ENCODING 7780
SWIDTH 533 0
DWIDTH 7 0
BBX 6 14 0 0
BITMAP
10
00
08
10
00
3C
44
40
60
30
18
08
88
F0
ENDCHAR
STARTCHAR uni1E65
ENCODING 7781
SWIDTH 389 0
DWIDTH 6 0
BBX 5 11 0 0
BITMAP
20
00
10
20
00
38
48
60
30
90
E0
ENDCHAR
STARTCHAR uni1E66
ENCODING 7782
SWIDTH 533 0
DWIDTH 7 0
BBX 6 12 0 0
BITMAP
08
00
14
08
00
3C
44
60
30
18
88
F0
ENDCHAR
STARTCHAR uni1E67
ENCODING 7783
SWIDTH 389 0
DWIDTH 6 0
BBX 5 11 0 0
BITMAP
10
00
28
10
00
38
48
60
30
90
E0
ENDCHAR
STARTCHAR uni1E68
ENCODING 7784
SWIDTH 533 0
DWIDTH 7 0
BBX 6 13 0 -2
BITMAP
10
00
3C
44
40
60
30
18
08
88
F0
00
20
ENDCHAR
STARTCHAR uni1E69
ENCODING 7785
SWIDTH 389 0
DWIDTH 6 0
BBX 5 10 0 -2
BITMAP
20
00
38
48
60
30
90
E0
00
40
ENDCHAR
STARTCHAR uni1E6A
ENCODING 7786
SWIDTH 606 0
DWIDTH 7 0
BBX 7 11 0 0
BITMAP
10
00
FE
92
10
10
20
20
20
20
70
ENDCHAR
STARTCHAR uni1E6B
ENCODING 7787
SWIDTH 341 0
DWIDTH 4 0
BBX 4 10 0 0
BITMAP
40
00
40
40
F0
40
C0
80
A0
C0
ENDCHAR
STARTCHAR uni1E6C
ENCODING 7788
SWIDTH 606 0
DWIDTH 7 0
BBX 7 11 0 -2
BITMAP
FE
92
10
10
20
20
20
20
70
00
20
ENDCHAR
STARTCHAR uni1E6D
ENCODING 7789
SWIDTH 341 0
DWIDTH 4 0
BBX 4 10 0 -2
BITMAP
40
40
F0
40
C0
80
A0
C0
00
40
ENDCHAR
STARTCHAR uni1E6E
ENCODING 7790
SWIDTH 606 0
DWIDTH 7 0
BBX 7 11 0 -2
BITMAP
FE
92
10
10
20
20
20
20
70
00
78
ENDCHAR
STARTCHAR uni1E6F
ENCODING 7791
SWIDTH 341 0
DWIDTH 4 0
BBX 5 10 -1 -2
BITMAP
20
20
78
20
60
40
50
60
00
F0
ENDCHAR
STARTCHAR uni1E70
ENCODING 7792
SWIDTH 606 0
DWIDTH 7 0
BBX 7 12 0 -3
BITMAP
FE
92
10
10
20
20
20
20
70
00
20
50
ENDCHAR
STARTCHAR uni1E71
ENCODING 7793
SWIDTH 341 0
DWIDTH 4 0
BBX 4 11 0 -3
BITMAP
40
40
F0
40
C0
80
A0
C0
00
40
A0
ENDCHAR
STARTCHAR uni1E72
ENCODING 7794
SWIDTH 794 0
DWIDTH 10 0
BBX 8 11 1 -2
BITMAP
E7
42
42
42
84
84
84
CC
78
00
28
ENDCHAR
STARTCHAR uni1E73
ENCODING 7795
SWIDTH 618 0
DWIDTH 8 0
BBX 7 8 0 -2
BITMAP
C4
44
4C
98
AA
CC
00
28
ENDCHAR
STARTCHAR uni1E74
ENCODING 7796
SWIDTH 794 0
DWIDTH 10 0
BBX 8 12 1 -3
BITMAP
E7
42
42
42
84
84
84
CC
78
00
34
58
ENDCHAR
STARTCHAR uni1E75
ENCODING 7797
SWIDTH 618 0
DWIDTH 8 0
BBX 7 9 0 -3
BITMAP
C4
44
4C
98
AA
CC
00
34
58
ENDCHAR
STARTCHAR uni1E76
ENCODING 7798
SWIDTH 794 0
DWIDTH 10 0
BBX 8 12 1 -3
BITMAP
E7
42
42
42
84
84
84
CC
78
00
10
28
ENDCHAR
STARTCHAR uni1E77
ENCODING 7799
SWIDTH 618 0
DWIDTH 8 0
BBX 7 9 0 -3
BITMAP
C4
44
4C
98
AA
CC
00
10
28
ENDCHAR
STARTCHAR uni1E78
ENCODING 7800
SWIDTH 794 0
DWIDTH 10 0
BBX 8 15 1 0
BITMAP
04
08
00
1A
2C
00
E7
42
42
42
84
84
84
CC
78
ENDCHAR
STARTCHAR uni1E79
ENCODING 7801
SWIDTH 618 0
DWIDTH 8 0
BBX 7 12 0 0
BITMAP
08
10
00
34
58
00
C4
44
4C
98
AA
CC
ENDCHAR
STARTCHAR uni1E7A
ENCODING 7802
SWIDTH 794 0
DWIDTH 10 0
BBX 8 13 1 0
BITMAP
14
00
3C
00
E7
42
42
42
84
84
84
CC
78
ENDCHAR
STARTCHAR uni1E7B
ENCODING 7803
SWIDTH 618 0
DWIDTH 8 0
BBX 7 10 0 0
BITMAP
28
00
78
00
C4
44
4C
98
AA
CC
ENDCHAR
STARTCHAR uni1E7C
ENCODING 7804
SWIDTH 637 0
DWIDTH 8 0
BBX 8 12 0 0
BITMAP
1A
2C
00
E7
42
44
44
28
28
30
30
20
ENDCHAR
STARTCHAR uni1E7D
ENCODING 7805
SWIDTH 510 0
DWIDTH 6 0
BBX 5 9 0 0
BITMAP
68
B0
00
C8
48
C8
88
90
60
ENDCHAR
STARTCHAR uni1E7E
ENCODING 7806
SWIDTH 637 0
DWIDTH 8 0
BBX 8 11 0 -2
BITMAP
E7
42
44
44
28
28
30
30
20
00
10
ENDCHAR
STARTCHAR uni1E7F
ENCODING 7807
SWIDTH 510 0
DWIDTH 6 0
BBX 5 8 0 -2
BITMAP
C8
48
C8
88
90
60
00
20
ENDCHAR
STARTCHAR Wgrave
ENCODING 7808
SWIDTH 946 0
DWIDTH 12 0
BBX 12 12 0 0
BITMAP
0400
0200
0000
E270
4620
4620
4A40
4A40
5280
3180
2100
2100
ENDCHAR
STARTCHAR wgrave
ENCODING 7809
SWIDTH 785 0
DWIDTH 10 0
BBX 8 9 1 0
BITMAP
10
08
00
C9
49
D9
91
92
6C
ENDCHAR
STARTCHAR Wacute
ENCODING 7810
SWIDTH 946 0
DWIDTH 12 0
BBX 12 12 0 0
BITMAP
0200
0400
0000
E270
4620
4620
4A40
4A40
5280
3180
2100
2100
ENDCHAR
STARTCHAR wacute
ENCODING 7811
SWIDTH 785 0
DWIDTH 10 0
BBX 8 9 1 0
BITMAP
08
10
00
C9
49
D9
91
92
6C
ENDCHAR
STARTCHAR Wdieresis
ENCODING 7812
SWIDTH 946 0
DWIDTH 12 0
BBX 12 11 0 0
BITMAP
0500
0000
E270
4620
4620
4A40
4A40
5280
3180
2100
2100
ENDCHAR
STARTCHAR wdieresis
ENCODING 7813
SWIDTH 785 0
DWIDTH 10 0
BBX 8 8 1 0
BITMAP
28
00
C9
49
D9
91
92
6C
ENDCHAR
STARTCHAR uni1E86
ENCODING 7814
SWIDTH 946 0
DWIDTH 12 0
BBX 12 11 0 0
BITMAP
0200
0000
E270
4620
4620
4A40
4A40
5280
3180
2100
2100
ENDCHAR
STARTCHAR uni1E87
ENCODING 7815
SWIDTH 785 0
DWIDTH 10 0
BBX 8 8 1 0
BITMAP
10
00
C9
49
D9
91
92
6C
ENDCHAR
STARTCHAR uni1E88
ENCODING 7816
SWIDTH 946 0
DWIDTH 12 0
BBX 12 11 0 -2
BITMAP
E270
4620
4620
4A40
4A40
5280
3180
2100
2100
0000
0400
ENDCHAR
STARTCHAR uni1E89
ENCODING 7817
SWIDTH 785 0
DWIDTH 10 0
BBX 8 8 1 -2
BITMAP
C9
49
D9
91
92
6C
00
10
ENDCHAR
STARTCHAR uni1E8A
ENCODING 7818
SWIDTH 632 0
DWIDTH 9 0
BBX 8 11 0 0
BITMAP
08
00
77
22
14
14
18
28
24
44
EE
ENDCHAR
STARTCHAR uni1E8B
ENCODING 7819
SWIDTH 516 0
DWIDTH 7 0
BBX 6 8 0 0
BITMAP
10
00
64
28
30
30
54
98
ENDCHAR
STARTCHAR uni1E8C
ENCODING 7820
SWIDTH 632 0
DWIDTH 9 0
BBX 8 11 0 0
BITMAP
14
00
77
22
14
14
18
28
24
44
EE
ENDCHAR
STARTCHAR uni1E8D
ENCODING 7821
SWIDTH 516 0
DWIDTH 7 0
BBX 6 8 0 0
BITMAP
28
00
64
28
30
30
54
98
ENDCHAR
STARTCHAR uni1E8E
ENCODING 7822
SWIDTH 591 0
DWIDTH 7 0
BBX 7 11 0 0
BITMAP
10
00
EE
44
48
50
20
20
40
40
E0
ENDCHAR
STARTCHAR uni1E8F
ENCODING 7823
SWIDTH 468 0
DWIDTH 6 0
BBX 7 11 -2 -3
BITMAP
08
00
32
12
14
14
18
10
10
A0
C0
ENDCHAR
STARTCHAR uni1E90
ENCODING 7824
SWIDTH 622 0
DWIDTH 8 0
BBX 7 12 0 0
BITMAP
10
28
00
7E
42
04
08
10
20
40
84
FC
ENDCHAR
STARTCHAR uni1E91
ENCODING 7825
SWIDTH 468 0
DWIDTH 6 0
BBX 5 9 0 0
BITMAP
20
50
00
78
90
20
40
88
F0
ENDCHAR
STARTCHAR uni1E92
ENCODING 7826
SWIDTH 622 0
DWIDTH 8 0
BBX 7 11 0 -2
BITMAP
7E
42
04
08
10
20
40
84
FC
00
10
ENDCHAR
STARTCHAR uni1E93
ENCODING 7827
SWIDTH 468 0
DWIDTH 6 0
BBX 5 8 0 -2
BITMAP
78
90
20
40
88
F0
00
20
ENDCHAR
STARTCHAR uni1E94
ENCODING 7828
SWIDTH 622 0
DWIDTH 8 0
BBX 7 11 0 -2
BITMAP
7E
42
04
08
10
20
40
84
FC
00
78
ENDCHAR
STARTCHAR uni1E95
ENCODING 7829
SWIDTH 468 0
DWIDTH 6 0
BBX 5 8 0 -2
BITMAP
78
90
20
40
88
F0
00
F0
ENDCHAR
STARTCHAR uni1E96
ENCODING 7830
SWIDTH 607 0
DWIDTH 8 0
BBX 7 12 0 -2
BITMAP
60
20
20
40
4C
54
64
C8
8A
8C
00
78
ENDCHAR
STARTCHAR uni1E97
ENCODING 7831
SWIDTH 341 0
DWIDTH 4 0
BBX 4 10 0 0
BITMAP
A0
00
40
40
F0
40
C0
80
A0
C0
ENDCHAR
STARTCHAR uni1E98
ENCODING 7832
SWIDTH 785 0
DWIDTH 10 0
BBX 8 10 1 0
BITMAP
10
28
10
00
C9
49
D9
91
92
6C
ENDCHAR
STARTCHAR uni1E99
ENCODING 7833
SWIDTH 468 0
DWIDTH 6 0
BBX 7 13 -2 -3
BITMAP
08
14
08
00
32
12
14
14
18
10
10
A0
C0
ENDCHAR
STARTCHAR uni1EA0
ENCODING 7840
SWIDTH 624 0
DWIDTH 8 0
BBX 8 11 -1 -2
BITMAP
04
0C
0C
14
12
3E
22
42
E7
00
08
ENDCHAR
STARTCHAR uni1EA1
ENCODING 7841
SWIDTH 561 0
DWIDTH 7 0
BBX 6 8 0 -2
BITMAP
3C
44
CC
88
98
EC
00
20
ENDCHAR
STARTCHAR uni1EA4
ENCODING 7844
SWIDTH 624 0
DWIDTH 8 0
BBX 8 13 -1 0
BITMAP
04
08
00
04
0A
00
04
0C
14
12
3E
42
E7
ENDCHAR
STARTCHAR uni1EA5
ENCODING 7845
SWIDTH 561 0
DWIDTH 7 0
BBX 6 12 0 0
BITMAP
08
10
00
10
28
00
3C
44
CC
88
98
EC
ENDCHAR
STARTCHAR uni1EA6
ENCODING 7846
SWIDTH 624 0
DWIDTH 8 0
BBX 8 13 -1 0
BITMAP
08
04
00
04
0A
00
04
0C
14
12
3E
42
E7
ENDCHAR
STARTCHAR uni1EA7
ENCODING 7847
SWIDTH 561 0
DWIDTH 7 0
BBX 6 12 0 0
BITMAP
20
10
00
10
28
00
3C
44
CC
88
98
EC
ENDCHAR
STARTCHAR uni1EAA
ENCODING 7850
SWIDTH 624 0
DWIDTH 8 0
BBX 8 13 -1 0
BITMAP
0D
16
00
04
0A
00
04
0C
14
12
3E
42
E7
ENDCHAR
STARTCHAR uni1EAB
ENCODING 7851
SWIDTH 561 0
DWIDTH 7 0
BBX 6 12 0 0
BITMAP
34
58
00
10
28
00
3C
44
CC
88
98
EC
ENDCHAR
STARTCHAR uni1EAC
ENCODING 7852
SWIDTH 624 0
DWIDTH 8 0
BBX 8 14 -1 -2
BITMAP
08
14
00
04
0C
0C
14
12
3E
22
42
E7
00
08
ENDCHAR
STARTCHAR uni1EAD
ENCODING 7853
SWIDTH 561 0
DWIDTH 7 0
BBX 6 11 0 -2
BITMAP
10
28
00
3C
44
CC
88
98
EC
00
20
ENDCHAR
STARTCHAR uni1EAE
ENCODING 7854
SWIDTH 624 0
DWIDTH 8 0
BBX 8 15 -1 0
BITMAP
04
08
00
12
0C
00
04
0C
0C
14
12
3E
22
42
E7
ENDCHAR
STARTCHAR uni1EAF
ENCODING 7855
SWIDTH 561 0
DWIDTH 7 0
BBX 6 12 0 0
BITMAP
08
10
00
24
18
00
3C
44
CC
88
98
EC
ENDCHAR
STARTCHAR uni1EB0
ENCODING 7856
SWIDTH 624 0
DWIDTH 8 0
BBX 8 15 -1 0
BITMAP
10
08
00
12
0C
00
04
0C
0C
14
12
3E
22
42
E7
ENDCHAR
STARTCHAR uni1EB1
ENCODING 7857
SWIDTH 561 0
DWIDTH 7 0
BBX 6 12 0 0
BITMAP
20
10
00
24
18
00
3C
44
CC
88
98
EC
ENDCHAR
STARTCHAR uni1EB4
ENCODING 7860
SWIDTH 624 0
DWIDTH 8 0
BBX 8 15 -1 0
BITMAP
1A
2C
00
12
0C
00
04
0C
0C
14
12
3E
22
42
E7
ENDCHAR
STARTCHAR uni1EB5
ENCODING 7861
SWIDTH 561 0
DWIDTH 7 0
BBX 6 12 0 0
BITMAP
34
58
00
24
18
00
3C
44
CC
88
98
EC
ENDCHAR
STARTCHAR uni1EB6
ENCODING 7862
SWIDTH 624 0
DWIDTH 8 0
BBX 8 14 -1 -2
BITMAP
12
0C
00
04
0C
0C
14
12
3E
22
42
E7
00
08
ENDCHAR
STARTCHAR uni1EB7
ENCODING 7863
SWIDTH 561 0
DWIDTH 7 0
BBX 6 11 0 -2
BITMAP
48
30
00
3C
44
CC
88
98
EC
00
20
ENDCHAR
STARTCHAR uni1EB8
ENCODING 7864
SWIDTH 596 0
DWIDTH 8 0
BBX 7 11 0 -2
BITMAP
7E
22
20
24
3C
44
40
44
FC
00
10
ENDCHAR
STARTCHAR uni1EB9
ENCODING 7865
SWIDTH 453 0
DWIDTH 6 0
BBX 5 8 0 -2
BITMAP
38
48
90
E0
80
70
00
20
ENDCHAR
STARTCHAR uni1EBC
ENCODING 7868
SWIDTH 596 0
DWIDTH 8 0
BBX 7 12 0 0
BITMAP
1A
2C
00
7E
22
20
24
3C
44
40
44
FC
ENDCHAR
STARTCHAR uni1EBD
ENCODING 7869
SWIDTH 453 0
DWIDTH 6 0
BBX 6 9 0 0
BITMAP
34
58
00
38
48
90
E0
80
70
ENDCHAR
STARTCHAR uni1EBE
ENCODING 7870
SWIDTH 596 0
DWIDTH 8 0
BBX 7 13 0 0
BITMAP
04
08
00
08
14
00
7E
22
20
78
40
44
FC
ENDCHAR
STARTCHAR uni1EBF
ENCODING 7871
SWIDTH 453 0
DWIDTH 6 0
BBX 5 12 0 0
BITMAP
08
10
00
10
28
00
38
48
90
E0
80
70
ENDCHAR
STARTCHAR uni1EC0
ENCODING 7872
SWIDTH 596 0
DWIDTH 8 0
BBX 7 13 0 0
BITMAP
10
08
00
08
14
00
7E
22
20
78
40
44
FC
ENDCHAR
STARTCHAR uni1EC1
ENCODING 7873
SWIDTH 453 0
DWIDTH 6 0
BBX 5 12 0 0
BITMAP
20
10
00
10
28
00
38
48
90
E0
80
70
ENDCHAR
STARTCHAR uni1EC4
ENCODING 7876
SWIDTH 596 0
DWIDTH 8 0
BBX 7 13 0 0
BITMAP
1A
2C
00
08
14
00
7E
22
20
78
40
44
FC
ENDCHAR
STARTCHAR uni1EC5
ENCODING 7877
SWIDTH 453 0
DWIDTH 6 0
BBX 6 12 0 0
BITMAP
34
58
00
10
28
00
38
48
90
E0
80
70
ENDCHAR
STARTCHAR uni1EC6
ENCODING 7878
SWIDTH 596 0
DWIDTH 8 0
BBX 7 14 0 -2
BITMAP
10
28
00
7E
22
20
24
3C
44
40
44
FC
00
10
ENDCHAR
STARTCHAR uni1EC7
ENCODING 7879
SWIDTH 453 0
DWIDTH 6 0
BBX 5 11 0 -2
BITMAP
20
50
00
38
48
90
E0
80
70
00
20
ENDCHAR
STARTCHAR uni1ECA
ENCODING 7882
SWIDTH 345 0
DWIDTH 4 0
BBX 4 11 0 -2
BITMAP
70
20
20
20
40
40
40
40
E0
00
40
ENDCHAR
STARTCHAR uni1ECB
ENCODING 7883
SWIDTH 317 0
DWIDTH 4 0
BBX 3 10 0 -2
BITMAP
40
00
C0
40
40
80
A0
C0
00
40
ENDCHAR
STARTCHAR uni1ECC
ENCODING 7884
SWIDTH 753 0
DWIDTH 9 0
BBX 8 11 0 -2
BITMAP
1C
62
41
C1
81
83
82
46
38
00
10
ENDCHAR
STARTCHAR uni1ECD
ENCODING 7885
SWIDTH 537 0
DWIDTH 7 0
BBX 6 8 0 -2
BITMAP
38
44
C4
8C
88
70
00
20
ENDCHAR
STARTCHAR uni1ED0
ENCODING 7888
SWIDTH 753 0
DWIDTH 9 0
BBX 8 13 0 0
BITMAP
04
08
00
08
14
00
1E
63
C1
81
83
C6
78
ENDCHAR
STARTCHAR uni1ED1
ENCODING 7889
SWIDTH 537 0
DWIDTH 7 0
BBX 6 12 0 0
BITMAP
08
10
00
10
28
00
38
44
C4
8C
88
70
ENDCHAR
STARTCHAR uni1ED2
ENCODING 7890
SWIDTH 753 0
DWIDTH 9 0
BBX 8 13 0 0
BITMAP
10
08
00
08
14
00
1E
63
C1
81
83
C6
78
ENDCHAR
STARTCHAR uni1ED3
ENCODING 7891
SWIDTH 537 0
DWIDTH 7 0
BBX 6 12 0 0
BITMAP
20
10
00
10
28
00
38
44
C4
8C
88
70
ENDCHAR
STARTCHAR uni1ED6
ENCODING 7894
SWIDTH 753 0
DWIDTH 9 0
BBX 8 13 0 0
BITMAP
1A
2C
00
08
14
00
1E
63
C1
81
83
C6
78
ENDCHAR
STARTCHAR uni1ED7
ENCODING 7895
SWIDTH 537 0
DWIDTH 7 0
BBX 6 12 0 0
BITMAP
34
58
00
10
28
00
38
44
C4
8C
88
70
ENDCHAR
STARTCHAR uni1ED8
ENCODING 7896
SWIDTH 753 0
DWIDTH 9 0
BBX 8 14 0 -2
BITMAP
08
14
00
1C
62
41
C1
81
83
82
46
38
00
10
ENDCHAR
STARTCHAR uni1ED9
ENCODING 7897
SWIDTH 537 0
DWIDTH 7 0
BBX 6 11 0 -2
BITMAP
10
28
00
38
44
C4
8C
88
70
00
20
ENDCHAR
STARTCHAR uni1EDA
ENCODING 7898
SWIDTH 753 0
DWIDTH 9 0
BBX 10 12 0 0
BITMAP
0200
0400
0000
1C40
6240
4180
C100
8100
8300
8200
4600
3800
ENDCHAR
STARTCHAR uni1EDB
ENCODING 7899
SWIDTH 537 0
DWIDTH 7 0
BBX 8 9 0 0
BITMAP
04
08
00
39
45
C6
8C
88
70
ENDCHAR
STARTCHAR uni1EDC
ENCODING 7900
SWIDTH 753 0
DWIDTH 9 0
BBX 10 12 0 0
BITMAP
0800
0400
0000
1C40
6240
4180
C100
8100
8300
8200
4600
3800
ENDCHAR
STARTCHAR uni1EDD
ENCODING 7901
SWIDTH 537 0
DWIDTH 7 0
BBX 8 9 0 0
BITMAP
10
08
00
39
45
C6
8C
88
70
ENDCHAR
STARTCHAR uni1EE0
ENCODING 7904
SWIDTH 753 0
DWIDTH 9 0
BBX 10 12 0 0
BITMAP
0D00
1600
0000
1C40
6240
4180
C100
8100
8300
8200
4600
3800
ENDCHAR
STARTCHAR uni1EE1
ENCODING 7905
SWIDTH 537 0
DWIDTH 7 0
BBX 8 9 0 0
BITMAP
1A
2C
00
39
45
C6
8C
88
70
ENDCHAR
STARTCHAR uni1EE2
ENCODING 7906
SWIDTH 753 0
DWIDTH 9 0
BBX 10 11 0 -2
BITMAP
1C40
6240
4180
C100
8100
8300
8200
4600
3800
0000
0800
ENDCHAR
STARTCHAR uni1EE3
ENCODING 7907
SWIDTH 537 0
DWIDTH 7 0
BBX 8 8 0 -2
BITMAP
39
45
C6
8C
88
70
00
10
ENDCHAR
STARTCHAR uni1EE4
ENCODING 7908
SWIDTH 794 0
DWIDTH 10 0
BBX 8 11 1 -2
BITMAP
E7
42
42
42
84
84
84
CC
78
00
10
ENDCHAR
STARTCHAR uni1EE5
ENCODING 7909
SWIDTH 618 0
DWIDTH 8 0
BBX 7 8 0 -2
BITMAP
C4
44
4C
98
AA
CC
00
10
ENDCHAR
STARTCHAR uni1EE8
ENCODING 7912
SWIDTH 794 0
DWIDTH 10 0
BBX 10 12 1 0
BITMAP
0400
0800
0000
E740
4240
4280
4200
8400
8400
8400
CC00
7800
ENDCHAR
STARTCHAR uni1EE9
ENCODING 7913
SWIDTH 618 0
DWIDTH 8 0
BBX 9 9 0 0
BITMAP
0400
0800
0000
C480
4480
4D00
9800
AA00
CC00
ENDCHAR
STARTCHAR uni1EEA
ENCODING 7914
SWIDTH 794 0
DWIDTH 10 0
BBX 10 12 1 0
BITMAP
0800
0400
0000
E740
4240
4280
4200
8400
8400
8400
CC00
7800
ENDCHAR
STARTCHAR uni1EEB
ENCODING 7915
SWIDTH 618 0
DWIDTH 8 0
BBX 9 9 0 0
BITMAP
1000
0800
0000
C480
4480
4D00
9800
AA00
CC00
ENDCHAR
STARTCHAR uni1EEE
ENCODING 7918
SWIDTH 794 0
DWIDTH 10 0
BBX 10 12 1 0
BITMAP
0D00
1600
0000
E740
4240
4280
4200
8400
8400
8400
CC00
7800
ENDCHAR
STARTCHAR uni1EEF
ENCODING 7919
SWIDTH 618 0
DWIDTH 8 0
BBX 9 9 0 0
BITMAP
1A00
2C00
0000
C480
4480
4D00
9800
AA00
CC00
ENDCHAR
STARTCHAR uni1EF0
ENCODING 7920
SWIDTH 794 0
DWIDTH 10 0
BBX 10 11 1 -2
BITMAP
E740
4240
4280
4200
8400
8400
8400
CC00
7800
0000
1000
ENDCHAR
STARTCHAR uni1EF1
ENCODING 7921
SWIDTH 618 0
DWIDTH 8 0
BBX 9 8 0 -2
BITMAP
C480
4480
4D00
9800
AA00
CC00
0000
1000
ENDCHAR
STARTCHAR Ygrave
ENCODING 7922
SWIDTH 591 0
DWIDTH 7 0
BBX 7 12 0 0
BITMAP
20
10
00
EE
44
48
50
20
20
40
40
E0
ENDCHAR
STARTCHAR ygrave
ENCODING 7923
SWIDTH 468 0
DWIDTH 6 0
BBX 7 12 -2 -3
BITMAP
10
08
00
32
12
14
14
18
10
10
A0
C0
ENDCHAR
STARTCHAR uni1EF4
ENCODING 7924
SWIDTH 591 0
DWIDTH 7 0
BBX 7 11 0 -2
BITMAP
EE
44
48
50
20
20
40
40
E0
00
20
ENDCHAR
STARTCHAR uni1EF5
ENCODING 7925
SWIDTH 468 0
DWIDTH 6 0
BBX 7 11 -2 -5
BITMAP
32
12
14
14
18
10
10
A0
C0
00
20
ENDCHAR
STARTCHAR uni1EF8
ENCODING 7928
SWIDTH 591 0
DWIDTH 7 0
BBX 7 12 0 0
BITMAP
34
58
00
EE
44
48
50
20
20
40
40
E0
ENDCHAR
STARTCHAR uni1EF9
ENCODING 7929
SWIDTH 468 0
DWIDTH 6 0
BBX 7 12 -2 -3
BITMAP
1A
2C
00
32
12
14
14
18
10
10
A0
C0
ENDCHAR
STARTCHAR uni2000
ENCODING 8192
SWIDTH 500 0
DWIDTH 6 0
BBX 1 1 0 0
BITMAP
00
ENDCHAR
STARTCHAR uni2001
ENCODING 8193
SWIDTH 1000 0
DWIDTH 13 0
BBX 1 1 0 0
BITMAP
00
ENDCHAR
STARTCHAR uni2002
ENCODING 8194
SWIDTH 500 0
DWIDTH 6 0
BBX 1 1 0 0
BITMAP
00
ENDCHAR
STARTCHAR uni2003
ENCODING 8195
SWIDTH 1000 0
DWIDTH 13 0
BBX 1 1 0 0
BITMAP
00
ENDCHAR
STARTCHAR uni2004
ENCODING 8196
SWIDTH 333 0
DWIDTH 4 0
BBX 1 1 0 0
BITMAP
00
ENDCHAR
STARTCHAR uni2005
ENCODING 8197
SWIDTH 250 0
DWIDTH 3 0
BBX 1 1 0 0
BITMAP
00
ENDCHAR
STARTCHAR uni2006
ENCODING 8198
SWIDTH 167 0
DWIDTH 2 0
BBX 1 1 0 0
BITMAP
00
ENDCHAR
STARTCHAR uni2007
ENCODING 8199
SWIDTH 530 0
DWIDTH 6 0
BBX 1 1 0 0
BITMAP
00
ENDCHAR
STARTCHAR uni2008
ENCODING 8200
SWIDTH 265 0
DWIDTH 3 0
BBX 1 1 0 0
BITMAP
00
ENDCHAR
STARTCHAR uni2009
ENCODING 8201
SWIDTH 200 0
DWIDTH 3 0
BBX 1 1 0 0
BITMAP
00
ENDCHAR
STARTCHAR uni200A
ENCODING 8202
SWIDTH 100 0
DWIDTH 1 0
BBX 1 1 0 0
BITMAP
00
ENDCHAR
STARTCHAR uni200B
ENCODING 8203
SWIDTH 0 0
DWIDTH 0 0
BBX 1 1 0 0
BITMAP
00
ENDCHAR
STARTCHAR uni2010
ENCODING 8208
SWIDTH 392 0
DWIDTH 5 0
BBX 3 1 1 3
BITMAP
E0
ENDCHAR
STARTCHAR uni2011
ENCODING 8209
SWIDTH 392 0
DWIDTH 5 0
BBX 3 1 1 3
BITMAP
E0
ENDCHAR
STARTCHAR figuredash
ENCODING 8210
SWIDTH 500 0
DWIDTH 6 0
BBX 6 1 0 3
BITMAP
FC
ENDCHAR
STARTCHAR endash
ENCODING 8211
SWIDTH 500 0
DWIDTH 6 0
BBX 6 1 0 3
BITMAP
FC
ENDCHAR
STARTCHAR emdash
ENCODING 8212
SWIDTH 1000 0
DWIDTH 12 0
BBX 12 1 0 3
BITMAP
FFF0
ENDCHAR
STARTCHAR afii00208
ENCODING 8213
SWIDTH 1000 0
DWIDTH 12 0
BBX 12 1 0 3
BITMAP
FFF0
ENDCHAR
STARTCHAR quoteleft
ENCODING 8216
SWIDTH 216 0
DWIDTH 3 0
BBX 2 3 1 6
BITMAP
40
80
80
ENDCHAR
STARTCHAR quoteright
ENCODING 8217
SWIDTH 216 0
DWIDTH 3 0
BBX 2 3 0 6
BITMAP
40
40
80
ENDCHAR
STARTCHAR quotesinglbase
ENCODING 8218
SWIDTH 216 0
DWIDTH 3 0
BBX 2 3 0 -2
BITMAP
40
40
80
ENDCHAR
STARTCHAR quotereversed
ENCODING 8219
SWIDTH 216 0
DWIDTH 3 0
BBX 2 3 0 6
BITMAP
80
80
40
ENDCHAR
STARTCHAR quotedblleft
ENCODING 8220
SWIDTH 402 0
DWIDTH 5 0
BBX 4 3 1 6
BITMAP
50
A0
A0
ENDCHAR
STARTCHAR quotedblright
ENCODING 8221
SWIDTH 402 0
DWIDTH 5 0
BBX 4 3 0 6
BITMAP
50
50
A0
ENDCHAR
STARTCHAR quotedblbase
ENCODING 8222
SWIDTH 402 0
DWIDTH 5 0
BBX 4 3 -1 -2
BITMAP
50
50
A0
ENDCHAR
STARTCHAR uni201F
ENCODING 8223
SWIDTH 402 0
DWIDTH 5 0
BBX 4 3 0 6
BITMAP
A0
A0
50
ENDCHAR
STARTCHAR dagger
ENCODING 8224
SWIDTH 500 0
DWIDTH 6 0
BBX 6 11 0 -2
BITMAP
10
10
10
FC
20
20
20
40
40
40
40
ENDCHAR
STARTCHAR daggerdbl
ENCODING 8225
SWIDTH 490 0
DWIDTH 6 0
BBX 5 11 0 -2
BITMAP
10
10
78
20
20
20
20
40
F0
40
40
ENDCHAR
STARTCHAR bullet
ENCODING 8226
SWIDTH 500 0
DWIDTH 6 0
BBX 4 4 0 3
BITMAP
60
F0
F0
60
ENDCHAR
STARTCHAR ellipsis
ENCODING 8230
SWIDTH 1000 0
DWIDTH 12 0
BBX 9 1 0 0
BITMAP
8880
ENDCHAR
STARTCHAR perthousand
ENCODING 8240
SWIDTH 1200 0
DWIDTH 15 0
BBX 12 9 1 0
BITMAP
3200
5E00
9400
A800
CB30
1550
2990
2AA0
4CC0
ENDCHAR
STARTCHAR guilsinglleft
ENCODING 8249
SWIDTH 277 0
DWIDTH 3 0
BBX 3 4 0 1
BITMAP
20
40
80
40
ENDCHAR
STARTCHAR guilsinglright
ENCODING 8250
SWIDTH 277 0
DWIDTH 3 0
BBX 3 4 0 1
BITMAP
40
20
40
80
ENDCHAR
STARTCHAR fraction
ENCODING 8260
SWIDTH 100 0
DWIDTH 1 0
BBX 6 9 -3 0
BITMAP
04
04
08
10
10
20
40
40
80
ENDCHAR
STARTCHAR oneinferior
ENCODING 8321
SWIDTH 370 0
DWIDTH 5 0
BBX 3 6 1 -3
BITMAP
60
20
20
40
40
E0
ENDCHAR
STARTCHAR twoinferior
ENCODING 8322
SWIDTH 370 0
DWIDTH 5 0
BBX 5 6 0 -3
BITMAP
30
48
08
30
40
F0
ENDCHAR
STARTCHAR threeinferior
ENCODING 8323
SWIDTH 370 0
DWIDTH 5 0
BBX 5 6 0 -3
BITMAP
30
08
70
10
90
60
ENDCHAR
STARTCHAR uni20A5
ENCODING 8357
SWIDTH 912 0
DWIDTH 12 0
BBX 11 9 0 -1
BITMAP
0200
0200
CEC0
5540
6640
CC80
88A0
88C0
0800
ENDCHAR
STARTCHAR uni20A6
ENCODING 8358
SWIDTH 763 0
DWIDTH 10 0
BBX 9 9 0 0
BITMAP
6380
3100
3100
3F00
4900
7E00
4600
4200
E200
ENDCHAR
STARTCHAR uni20A9
ENCODING 8361
SWIDTH 946 0
DWIDTH 12 0
BBX 12 9 0 0
BITMAP
E270
4620
4620
4FC0
4A40
5F80
3180
2100
2100
ENDCHAR
STARTCHAR Euro
ENCODING 8364
SWIDTH 661 0
DWIDTH 8 0
BBX 8 9 -1 0
BITMAP
0F
31
20
F8
40
F8
41
23
1C
ENDCHAR
STARTCHAR uni20AD
ENCODING 8365
SWIDTH 650 0
DWIDTH 8 0
BBX 8 9 0 0
BITMAP
77
22
24
28
FF
48
48
44
E6
ENDCHAR
STARTCHAR uni2103
ENCODING 8451
SWIDTH 1041 0
DWIDTH 13 0
BBX 11 9 1 0
BITMAP
61E0
9620
9400
6C00
0800
0800
0820
0460
0380
ENDCHAR
STARTCHAR uni2109
ENCODING 8457
SWIDTH 951 0
DWIDTH 13 0
BBX 11 9 1 0
BITMAP
67E0
9220
9200
6240
07C0
0440
0400
0400
0E00
ENDCHAR
STARTCHAR trademark
ENCODING 8482
SWIDTH 1100 0
DWIDTH 14 0
BBX 13 5 0 4
BITMAP
FB18
A9B0
2150
2110
7338
ENDCHAR
STARTCHAR uni212A
ENCODING 8490
SWIDTH 650 0
DWIDTH 8 0
BBX 8 9 0 0
BITMAP
77
22
24
28
50
48
48
44
E6
ENDCHAR
STARTCHAR uni212B
ENCODING 8491
SWIDTH 624 0
DWIDTH 8 0
BBX 8 10 -1 0
BITMAP
04
0A
04
04
0C
14
12
3E
42
E7
ENDCHAR
STARTCHAR uni2132
ENCODING 8498
SWIDTH 571 0
DWIDTH 8 0
BBX 7 9 0 0
BITMAP
0E
04
04
44
7C
48
08
88
FC
ENDCHAR
STARTCHAR minus
ENCODING 8722
SWIDTH 570 0
DWIDTH 7 0
BBX 6 1 0 3
BITMAP
FC
ENDCHAR
STARTCHAR fraction
ENCODING 8725
SWIDTH 100 0
DWIDTH 1 0
BBX 6 9 -3 0
BITMAP
04
04
08
10
10
20
40
40
80
ENDCHAR
STARTCHAR periodcentered
ENCODING 8729
SWIDTH 265 0
DWIDTH 3 0
BBX 1 1 1 3
BITMAP
80
ENDCHAR
STARTCHAR uni2236
ENCODING 8758
SWIDTH 265 0
DWIDTH 3 0
BBX 2 6 0 0
BITMAP
40
00
00
00
00
80
ENDCHAR
STARTCHAR uni2259
ENCODING 8793
SWIDTH 570 0
DWIDTH 7 0
BBX 5 6 1 2
BITMAP
20
50
00
F8
00
F8
ENDCHAR
STARTCHAR uni225A
ENCODING 8794
SWIDTH 570 0
DWIDTH 7 0
BBX 5 6 1 2
BITMAP
50
20
00
F8
00
F8
ENDCHAR
STARTCHAR notequal
ENCODING 8800
SWIDTH 570 0
DWIDTH 7 0
BBX 5 9 1 -1
BITMAP
10
10
10
F8
20
F8
40
40
40
ENDCHAR
STARTCHAR equivalence
ENCODING 8801
SWIDTH 570 0
DWIDTH 7 0
BBX 5 5 0 1
BITMAP
F8
00
F8
00
F8
ENDCHAR
STARTCHAR uni2262
ENCODING 8802
SWIDTH 570 0
DWIDTH 7 0
BBX 5 9 0 -1
BITMAP
10
10
F8
20
F8
20
F8
40
40
ENDCHAR
STARTCHAR lessequal
ENCODING 8804
SWIDTH 570 0
DWIDTH 7 0
BBX 6 7 0 -1
BITMAP
0C
30
C0
30
0C
00
FC
ENDCHAR
STARTCHAR greaterequal
ENCODING 8805
SWIDTH 570 0
DWIDTH 7 0
BBX 6 7 0 -1
BITMAP
C0
30
0C
30
C0
00
FC
ENDCHAR
STARTCHAR uni226E
ENCODING 8814
SWIDTH 570 0
DWIDTH 7 0
BBX 6 9 0 -1
BITMAP
08
08
0C
30
D0
30
2C
20
20
ENDCHAR
STARTCHAR uni226F
ENCODING 8815
SWIDTH 570 0
DWIDTH 7 0
BBX 6 9 0 -1
BITMAP
08
08
C8
30
1C
30
E0
20
20
ENDCHAR
STARTCHAR uni2270
ENCODING 8816
SWIDTH 570 0
DWIDTH 7 0
BBX 6 9 0 -2
BITMAP
08
0C
38
D0
30
1C
20
FC
20
ENDCHAR
STARTCHAR uni2271
ENCODING 8817
SWIDTH 570 0
DWIDTH 7 0
BBX 6 9 0 -2
BITMAP
08
C8
38
1C
30
D0
20
FC
20
ENDCHAR
STARTCHAR fi
ENCODING -1
SWIDTH 607 0
DWIDTH 8 0
BBX 9 13 -2 -3
BITMAP
0700
0900
0800
0800
3F00
1100
1100
1200
2280
2300
2000
A000
C000
ENDCHAR
STARTCHAR fl
ENCODING -1
SWIDTH 603 0
DWIDTH 8 0
BBX 9 13 -2 -3
BITMAP
0680
0980
0880
0900
3D00
1100
1100
1200
2280
2300
2000
A000
C000
ENDCHAR
ENDFONT
